<?xml version="1.0" standalone="no"?>
<!DOCTYPE svg PUBLIC "-//W3C//DTD SVG 20010904//EN"
 "http://www.w3.org/TR/2001/REC-SVG-20010904/DTD/svg10.dtd">
<svg version="1.0" xmlns="http://www.w3.org/2000/svg"
 width="38" height="38" viewBox="0 0 880.000000 880.000000"
 preserveAspectRatio="xMidYMid meet">

<g transform="translate(0.000000,880.000000) scale(0.100000,-0.100000)"
fill="#26abe2" stroke="none">
<path d="M5150 7899 c-19 -11 -46 -37 -60 -57 -24 -35 -25 -44 -25 -177 0
-133 1 -142 25 -177 14 -20 42 -46 62 -58 36 -20 46 -20 617 -18 570 3 580 3
608 24 15 11 38 38 50 60 20 35 23 53 23 165 0 166 -14 201 -97 243 -28 14
-96 16 -600 16 -552 0 -569 -1 -603 -21z"/>
<path d="M5502 7111 l3 -199 31 -38 c50 -62 94 -79 204 -78 78 0 103 4 137 22
85 44 105 108 99 322 -2 74 -4 143 -5 153 -1 16 -19 17 -237 17 l-235 0 3
-199z"/>
<path d="M5215 6914 c-369 -65 -768 -220 -1080 -417 -84 -53 -242 -165 -288
-205 -24 -20 -58 -49 -76 -63 -133 -109 -376 -376 -487 -534 -11 -17 -36 -52
-55 -80 -159 -228 -309 -555 -394 -860 -294 -1052 3 -2180 774 -2945 58 -58
129 -124 156 -147 28 -23 74 -62 104 -86 67 -57 277 -197 398 -266 701 -398
1577 -491 2358 -250 206 64 487 187 626 274 21 14 41 25 43 25 9 0 231 153
301 207 172 134 401 366 536 543 321 424 514 884 595 1423 22 144 30 526 14
684 -49 513 -222 998 -504 1413 -39 58 -78 114 -87 125 -9 11 -46 56 -82 101
-112 139 -244 272 -423 424 -96 82 -285 210 -441 299 -275 156 -602 273 -927
331 -135 25 -146 25 -146 3 0 -38 -49 -120 -95 -161 -147 -129 -446 -126 -597
6 -31 28 -78 105 -92 155 -6 20 -22 20 -131 1z m920 -593 c775 -134 1422 -616
1765 -1315 328 -670 328 -1451 0 -2121 -332 -678 -966 -1163 -1702 -1304 -340
-65 -742 -52 -1071 34 -605 158 -1132 554 -1457 1095 -413 686 -453 1554 -104
2275 129 267 259 450 469 660 381 383 855 616 1400 690 152 21 545 13 700 -14z"/>
<path d="M5700 5035 c0 -787 -1 -836 -17 -841 -81 -25 -156 -87 -194 -160 -34
-67 -35 -199 -1 -261 35 -67 79 -110 144 -143 154 -76 330 -8 406 158 65 143
-17 333 -171 393 l-42 17 -3 836 -2 836 -60 0 -60 0 0 -835z"/>
<path d="M6275 4630 l-258 -258 49 -25 c59 -30 104 -76 134 -137 12 -25 24
-46 25 -48 1 -2 119 114 261 258 l259 260 -106 105 -105 104 -259 -259z"/>
<path d="M1465 6421 c-139 -64 -167 -240 -54 -349 64 -62 60 -62 818 -62 377
0 703 4 724 9 197 46 226 319 43 402 -39 18 -80 19 -766 19 -685 0 -727 -1
-765 -19z"/>
<path d="M635 5341 c-157 -71 -166 -291 -16 -379 l46 -27 855 0 c777 0 858 2
885 17 72 39 125 123 125 196 -1 68 -53 152 -120 192 -22 13 -141 15 -880 17
-811 3 -857 2 -895 -16z"/>
<path d="M155 4231 c-195 -88 -146 -380 68 -406 29 -3 477 -5 997 -3 1041 3
978 -1 1044 65 106 105 76 283 -59 344 -38 18 -91 19 -1025 19 -931 0 -987 -1
-1025 -19z"/>
<path d="M645 3121 c-168 -77 -178 -299 -16 -383 l53 -28 837 0 837 0 50 25
c61 30 86 56 107 113 21 54 21 100 0 154 -21 57 -46 83 -107 113 l-50 25 -835
0 c-788 0 -838 -1 -876 -19z"/>
<path d="M1475 2051 c-148 -67 -179 -255 -60 -360 19 -16 51 -35 72 -40 25 -7
284 -11 753 -11 675 0 717 1 755 19 108 50 155 177 105 286 -11 24 -35 55 -53
69 -76 58 -44 56 -819 56 -669 0 -715 -2 -753 -19z"/>
</g>
</svg>
