<?xml version="1.0" encoding="UTF-8"?>
<svg display="block" width="38" height="38" version="1.1" viewBox="0 0 400 335.96" xmlns="http://www.w3.org/2000/svg">
<g fill-rule="evenodd">
<path d="m302.11 133.02c0.79 0.071 2 0.07 2.689-3e-3 0.688-0.072 0.041-0.13-1.438-0.129-1.479 2e-3 -2.042 0.061-1.251 0.132m-140.76 130.99c0 0.451 0.123 0.897 0.275 0.99 0.151 0.094 0.21-0.275 0.13-0.82-0.177-1.201-0.405-1.297-0.405-0.17" fill="#0080ff"/>
<path d="m292.36 266.79c0.418 0.081 1.023 0.078 1.344-6e-3 0.322-0.085-0.02-0.15-0.76-0.147-0.739 4e-3 -1.002 0.073-0.584 0.153m4.37 0c0.418 0.081 1.023 0.078 1.344-6e-3 0.322-0.085-0.021-0.15-0.76-0.147-0.74 4e-3 -1.003 0.073-0.584 0.153" fill="#0af"/>
<path d="m277.98 60.885c0 0.209-0.275 0.625-0.611 0.924-0.511 0.454-0.917 1.129-1.238 2.057-0.32 0.927-0.726 1.602-1.237 2.056-0.936 0.832 0.404 3.322 1.789 3.322 0.171 0 0.747 0.416 1.28 0.924s1.595 1.378 2.362 1.933c0.766 0.554 1.816 1.424 2.334 1.933 0.517 0.508 1.106 0.924 1.308 0.924s0.882 0.529 1.51 1.176c0.628 0.648 1.261 1.177 1.405 1.177s0.762 0.529 1.372 1.176 1.264 1.177 1.452 1.177c0.189 0 1.099 0.756 2.024 1.681 0.924 0.924 1.818 1.68 1.987 1.68 0.4 0 6.448 6.048 6.448 6.447 0 0.169 0.378 0.685 0.84 1.147 0.463 0.462 0.841 1.06 0.841 1.329s0.151 0.489 0.336 0.489c1.574 0-1.106 4.265-3.072 4.889-0.344 0.109-0.626 0.339-0.626 0.512 0 0.172-0.171 0.313-0.381 0.313s-0.732 0.378-1.161 0.841c-0.428 0.462-0.933 0.84-1.122 0.84-0.513 0-3.386 2.972-3.386 3.502 0 0.253-0.227 0.547-0.504 0.653-0.278 0.107-0.504 0.501-0.504 0.876 0 0.376-0.152 0.683-0.337 0.683-0.184 0-0.336 0.378-0.336 0.841 0 0.462-0.14 0.84-0.312 0.84-0.171 0-0.416 0.832-0.543 1.849-0.127 1.016-0.364 1.848-0.528 1.848s-0.297 0.668-0.297 1.485c0 0.831-0.173 1.542-0.392 1.615-0.583 0.194-0.611 15.108-0.029 15.303 0.232 0.077 0.421 0.506 0.421 0.953s0.151 0.812 0.336 0.812 0.336 0.308 0.336 0.683c0 0.376 0.227 0.77 0.504 0.877 0.277 0.106 0.504 0.397 0.504 0.647 0 1.066 4.251 4.723 5.294 4.554 0.232-0.037 0.421 0.091 0.421 0.284s0.378 0.35 0.84 0.35 0.84 0.152 0.84 0.337c0 0.184 0.575 0.336 1.278 0.336 0.702 0 1.425 0.147 1.605 0.328 0.181 0.181 1.61 0.427 3.177 0.547l2.848 0.219-0.091 30.942c-0.061 20.713 0.022 31.055 0.252 31.285 0.438 0.437 0.479 49.496 0.041 49.767-0.166 0.102-0.408 1.246-0.538 2.541-0.13 1.294-0.373 2.354-0.539 2.354s-0.306 0.34-0.312 0.756-0.233 1.05-0.505 1.409c-0.271 0.359-0.493 0.926-0.493 1.26 0 0.335-0.151 0.608-0.336 0.608s-0.338 0.19-0.34 0.421c-6e-3 0.588-3.32 3.949-3.894 3.949-0.26 0-0.472 0.151-0.472 0.336s-0.29 0.336-0.644 0.336c-0.355 0-0.701 0.17-0.77 0.377-0.172 0.515-6.412 0.515-6.584 0-0.069-0.207-0.29-0.377-0.491-0.377-0.559 0-3.121-2.803-3.646-3.989-0.257-0.579-0.57-1.053-0.696-1.053s-0.334-0.833-0.461-1.853c-0.128-1.019-0.366-1.935-0.529-2.036s-0.297-1.158-0.297-2.349-0.142-2.165-0.316-2.165c-0.196 0-0.357-15.638-0.421-40.992-0.081-32.233-0.193-41.081-0.523-41.411-0.231-0.231-0.42-0.995-0.42-1.698 0-0.702-0.131-1.277-0.29-1.277s-0.374-0.721-0.479-1.602c-0.168-1.419-1.368-4.324-1.978-4.788-0.124-0.094-0.325-0.569-0.447-1.055-0.122-0.487-0.588-1.203-1.035-1.591-0.447-0.389-0.813-0.867-0.813-1.061 0-0.521-1.458-1.888-2.298-2.154-0.4-0.127-0.728-0.372-0.728-0.545 0-0.172-0.227-0.313-0.504-0.313s-0.504-0.145-0.504-0.321c0-0.177-0.529-0.42-1.176-0.542-0.648-0.121-1.177-0.355-1.177-0.519 0-0.165-0.605-0.299-1.344-0.299-0.74 0-1.345-0.127-1.345-0.283 0-0.155-3.506-0.384-7.792-0.509-4.286-0.124-7.878-0.312-7.983-0.417s-0.233-19.086-0.284-42.18c-0.06-26.953-0.21-41.989-0.42-41.989-0.18 0-0.328-0.378-0.328-0.84 0-0.463-0.135-0.841-0.299-0.841-0.165 0-0.395-0.378-0.511-0.84-0.131-0.522-0.449-0.84-0.841-0.84-0.346 0-0.713-0.218-0.815-0.484-0.223-0.579-2.267-1.193-3.985-1.195-0.682-1e-3 -1.334-0.153-1.448-0.338-0.262-0.424-133.61-0.47-133.61-0.046 0 0.159-0.998 0.37-2.216 0.468-1.219 0.098-2.384 0.345-2.588 0.55-0.205 0.205-0.645 0.372-0.978 0.372s-0.605 0.155-0.605 0.344c0 0.188-0.366 0.51-0.814 0.714s-0.905 0.73-1.015 1.169-0.349 0.798-0.53 0.798c-0.182 0-0.33 0.379-0.33 0.841s-0.151 0.84-0.335 0.84c-0.221 0-0.363 35.758-0.42 105.43-0.068 83.988-0.171 105.46-0.505 105.58-0.232 0.077-0.421 0.43-0.421 0.784s-0.139 0.644-0.309 0.644-0.409 0.454-0.531 1.009c-0.122 0.554-0.361 1.008-0.531 1.008s-0.309 0.302-0.309 0.672-0.14 0.672-0.31 0.672-0.409 0.454-0.531 1.009c-0.121 0.555-0.36 1.008-0.531 1.008-0.17 0-0.309 0.303-0.309 0.673 0 0.369-0.144 0.672-0.321 0.672-0.176 0-0.425 0.567-0.553 1.26-0.127 0.694-0.331 1.336-0.453 1.429-0.418 0.318-1.362 2.624-1.362 3.328 0 0.388-0.151 0.706-0.336 0.706s-0.336 0.378-0.336 0.84-0.144 0.84-0.32 0.84c-0.175 0-0.422 0.908-0.547 2.017-0.126 1.109-0.36 2.017-0.521 2.017s-0.293 0.907-0.293 2.017c0 2.095 0.696 3.361 1.849 3.361 0.277 0 0.504 0.151 0.504 0.336s0.823 0.336 1.829 0.336 1.899 0.114 1.984 0.252c0.416 0.673 165.79-0.056 166.46-0.733 0.798-0.801 0.998-8.254 0.228-8.51-0.231-0.077-0.42-0.506-0.42-0.953s-0.151-0.812-0.336-0.812-0.336-0.15-0.336-0.334c0-0.574-1.154-3.027-1.424-3.027-0.141 0-0.257-0.167-0.257-0.37 0-0.624-1.115-2.808-1.578-3.093-0.242-0.147-0.439-0.563-0.439-0.924 0-0.36-0.151-0.655-0.336-0.655s-0.336-0.227-0.336-0.505c0-0.277-0.114-0.505-0.252-0.506-0.328-3e-3 -1.429-1.938-1.429-2.51 0-0.243-0.227-0.528-0.504-0.635-0.277-0.106-0.504-0.416-0.504-0.689 0-0.272-0.278-0.693-0.618-0.935-0.34-0.241-0.728-0.884-0.863-1.427-0.135-0.544-0.575-1.275-0.979-1.625l-0.733-0.637-0.087-55.938-0.087-55.938h0.843c0.464 0 0.843-0.151 0.843-0.336 0-0.199 1.233-0.336 3.025-0.336 1.664 0 3.026 0.132 3.026 0.294s0.862 0.366 1.915 0.454c1.054 0.087 1.974 0.333 2.045 0.545 0.071 0.213 0.28 0.387 0.463 0.387 0.434 0 2.299 1.865 2.299 2.299 0 0.184 0.189 0.397 0.42 0.474 0.333 0.111 0.44 8.664 0.511 40.943 0.058 26.084 0.21 40.921 0.42 41.131 0.182 0.182 0.33 1.283 0.33 2.448 0 1.164 0.133 2.117 0.297 2.117 0.163 0 0.403 1.135 0.532 2.521 0.13 1.387 0.375 2.521 0.544 2.521s0.308 0.53 0.308 1.177 0.151 1.176 0.336 1.176 0.336 0.317 0.336 0.705c0 0.724 0.979 2.737 1.428 2.937 0.139 0.061 0.253 0.34 0.253 0.62 0 0.658 1.011 2.476 1.764 3.173 0.324 0.299 0.589 0.712 0.589 0.918 0 0.515 5.245 5.785 5.503 5.528 0.113-0.114 0.49 0.12 0.836 0.519 0.347 0.399 0.801 0.726 1.011 0.726 0.209 0 0.381 0.15 0.381 0.332 0 0.183 0.605 0.429 1.344 0.548 0.74 0.118 1.345 0.346 1.345 0.508 0 0.161 0.348 0.293 0.773 0.293s0.954 0.181 1.175 0.402c0.563 0.563 9.742 0.773 12.337 0.282 3.548-0.67 3.866-0.755 3.866-1.032 0-0.149 0.454-0.371 1.008-0.492 0.555-0.122 1.009-0.361 1.009-0.531 0-0.171 0.302-0.31 0.672-0.31s0.672-0.151 0.672-0.336 0.216-0.336 0.48-0.336 0.777-0.378 1.141-0.84c0.363-0.463 0.843-0.841 1.066-0.841 0.556 0 2.691-2.177 2.691-2.743 0-0.252 0.379-0.743 0.841-1.09s0.84-0.902 0.84-1.233c0-0.332 0.287-0.694 0.637-0.805 0.395-0.125 0.72-0.645 0.856-1.367 0.12-0.641 0.363-1.165 0.539-1.165 0.177 0 0.321-0.227 0.321-0.504 0-0.278 0.137-0.505 0.305-0.505 0.167 0 0.408-0.756 0.535-1.68 0.128-0.925 0.369-1.681 0.536-1.681 0.168 0 0.305-0.378 0.305-0.84s0.138-0.841 0.307-0.841 0.414-1.134 0.544-2.521c0.13-1.386 0.37-2.521 0.533-2.521s0.296-1.058 0.296-2.352c0-1.345 0.144-2.353 0.337-2.353 0.223 0 0.336-25.211 0.336-74.958 0-49.748-0.113-74.958-0.336-74.958-0.185 0-0.337-0.597-0.337-1.325 0-0.729-0.131-1.406-0.292-1.505-0.16-0.1-0.39-0.796-0.51-1.547-0.2-1.248-0.753-2.595-1.24-3.018-0.106-0.093-0.484-0.696-0.84-1.34s-1.214-1.747-1.908-2.45c-0.693-0.703-1.26-1.429-1.26-1.613 0-0.501-1.97-2.328-2.51-2.328-0.258 0-0.563-0.295-0.678-0.656-0.114-0.36-0.495-0.746-0.846-0.857-0.35-0.111-0.729-0.49-0.84-0.84-0.111-0.351-0.497-0.732-0.857-0.846-0.361-0.115-0.656-0.349-0.656-0.522 0-0.172-0.163-0.313-0.362-0.313s-0.962-0.605-1.694-1.345c-0.732-0.739-1.486-1.344-1.677-1.344-0.19 0-0.845-0.53-1.455-1.177s-1.216-1.176-1.346-1.176-0.447-0.189-0.705-0.42c-1.101-0.988-1.49-1.261-1.798-1.261-0.179 0-0.623-0.378-0.987-0.84-0.363-0.462-0.848-0.84-1.078-0.84-0.229 0-0.768-0.379-1.196-0.841s-0.901-0.84-1.05-0.84c-0.15 0-0.68-0.378-1.178-0.84-0.499-0.463-1.038-0.841-1.199-0.841-0.16 0-0.647-0.378-1.081-0.84s-0.922-0.84-1.083-0.84c-0.162 0-0.644-0.379-1.073-0.841-0.428-0.462-0.914-0.84-1.08-0.84-0.165 0-0.708-0.378-1.207-0.84-0.498-0.463-1.004-0.841-1.124-0.841-0.227 0-1.816-1.209-3.037-2.311-0.388-0.35-1.031-0.739-1.429-0.866-0.398-0.126-0.724-0.37-0.724-0.543 0-0.172-0.162-0.313-0.36-0.313s-0.587-0.227-0.864-0.505c-0.591-0.591-1.801-0.674-1.801-0.123m-47.899 16.09c0.114 0.185 0.804 0.336 1.532 0.336 0.729 0 1.325 0.151 1.325 0.336s0.205 0.336 0.455 0.336c0.628 0 2.234 1.539 2.234 2.141 0 0.271 0.189 0.555 0.42 0.632 0.566 0.189 0.622 74.765 0.058 75.139-0.2 0.132-0.577 0.731-0.839 1.332-0.261 0.601-0.67 1.092-0.908 1.092s-0.52 0.227-0.626 0.505c-0.106 0.277-0.48 0.504-0.83 0.504s-0.636 0.151-0.636 0.336-0.605 0.336-1.345 0.336c-0.739 0-1.344 0.151-1.344 0.336 0 0.223-17.647 0.336-52.269 0.336s-52.269-0.113-52.269-0.336c0-0.185-0.529-0.336-1.176-0.336-0.648 0-1.177-0.123-1.177-0.273 0-0.151-0.533-0.483-1.185-0.739-1.19-0.467-2.176-1.859-2.176-3.073 0-0.342-0.152-0.621-0.336-0.621-0.222 0-0.337-12.549-0.337-36.975 0-24.425 0.115-36.974 0.337-36.974 0.184 0 0.336-0.379 0.336-0.841s0.141-0.84 0.313-0.84c0.173 0 0.41-0.302 0.527-0.672 0.117-0.369 0.581-0.763 1.031-0.876s0.818-0.341 0.818-0.505c0-0.165 0.529-0.3 1.176-0.3s1.177-0.151 1.177-0.336c0-0.223 17.808-0.336 52.753-0.336 34.806 0 52.824 0.114 52.961 0.336m78.319 23.865c0.122 0.555 0.361 1.009 0.531 1.009s0.31 0.747 0.31 1.661c0 0.913 0.151 1.754 0.336 1.868 0.2 0.124 0.336 2.245 0.336 5.23 0 3.124-0.127 5.022-0.336 5.022-0.202 0-0.336 1.345-0.336 3.362 0 1.848-0.13 3.361-0.289 3.361-0.158 0-0.395 1.702-0.525 3.781-0.13 2.08-0.379 3.832-0.552 3.894s-0.315 0.413-0.315 0.78c0 0.721-0.736 1.629-1.321 1.629-0.198 0-0.36 0.151-0.36 0.336 0 0.194-1.064 0.336-2.521 0.336-1.456 0-2.521-0.142-2.521-0.336 0-0.185-0.378-0.336-0.84-0.336s-0.84-0.148-0.84-0.33c0-0.181-0.378-0.424-0.841-0.54-0.462-0.116-0.84-0.429-0.84-0.695s-0.378-0.834-0.84-1.263c-0.463-0.428-0.841-1.089-0.841-1.468 0-0.38-0.189-0.753-0.42-0.831-0.58-0.195-0.554-11.411 0.027-11.605 0.221-0.073 0.393-0.78 0.393-1.615 0-0.817 0.137-1.485 0.305-1.485 0.167 0 0.409-0.756 0.536-1.681 0.127-0.924 0.368-1.68 0.535-1.68 0.168 0 0.305-0.227 0.305-0.505 0-0.277 0.139-0.504 0.309-0.504 0.171 0 0.418-0.491 0.55-1.092 0.132-0.6 0.522-1.337 0.867-1.636s0.627-0.69 0.627-0.869 0.454-0.73 1.008-1.224c0.555-0.494 1.009-1.038 1.009-1.209s0.34-0.418 0.756-0.55c0.416-0.131 0.988-0.505 1.271-0.83 1.161-1.332 4.234-1.322 4.527 0.015m-126.55 76.281c0 0.172 0.416 0.361 0.924 0.42 0.892 0.102 0.93 0.19 1.093 2.459l0.168 2.353 4.366 0.243c2.472 0.137 4.417 0.392 4.482 0.588 0.063 0.19 0.405 0.345 0.759 0.345 0.355 0 0.645 0.135 0.645 0.3s0.39 0.398 0.866 0.517c0.9 0.226 3.503 2.576 3.503 3.163 0 0.184 0.19 0.397 0.421 0.474 0.315 0.105 0.42 1.643 0.42 6.162v6.023h-4.395c-5.694 0-5.521 0.158-5.521-5.033 0-4.922-0.421-5.589-3.68-5.825l-2.034-0.147v16.007c0 14.223 0.058 16.006 0.52 16.006 0.286 0 0.871 0.379 1.299 0.841s0.961 0.84 1.185 0.84c0.223 0 0.949 0.605 1.613 1.345 0.664 0.739 1.344 1.344 1.511 1.344 0.262 0 2.123 1.856 5.09 5.075 0.442 0.481 0.908 1.199 1.034 1.597 0.127 0.398 0.371 0.723 0.543 0.723 0.173 0 0.314 0.227 0.314 0.504 0 0.278 0.134 0.505 0.299 0.505 0.164 0 0.398 0.529 0.519 1.176s0.328 1.177 0.46 1.177c1.057 0 1.243 2.235 1.243 14.958 0 12.765-0.185 14.957-1.259 14.957-0.139 0-0.254 0.204-0.254 0.453 0 0.566-1.132 1.9-1.612 1.9-0.196 0-0.562 0.19-0.814 0.421-0.929 0.854-1.968 1.257-3.79 1.471-1.029 0.121-1.95 0.35-2.048 0.509-0.099 0.159-1.456 0.289-3.016 0.289h-2.837l-6e-3 2.436c-7e-3 3.351-0.04 3.383-3.577 3.404-4.033 0.024-4.821-0.584-4.821-3.716v-2.124h-2.165c-1.191 0-2.245-0.13-2.343-0.289s-1.02-0.388-2.048-0.509c-1.915-0.225-3.152-0.727-3.629-1.471-0.147-0.231-0.508-0.421-0.8-0.421-0.621 0-1.788-1.241-1.788-1.9 0-0.249-0.113-0.454-0.252-0.455-0.786-8e-3 -1.19-2.156-1.345-7.14-0.143-4.609-0.097-5.294 0.352-5.294 0.284 0 0.58-0.19 0.657-0.421 0.207-0.622 7.68-0.585 8.436 0.042 0.462 0.383 0.555 1.161 0.555 4.621 0 2.289 0.135 4.161 0.3 4.161s0.395 0.378 0.511 0.84c0.136 0.543 0.447 0.841 0.877 0.841 0.366 0 0.665 0.151 0.665 0.336s0.454 0.336 1.009 0.336h1.008v-19.638-19.639l-1.017-0.782c-0.559-0.43-1.762-1.5-2.673-2.378s-1.792-1.597-1.958-1.597c-0.45 0-4.342-3.94-5.011-5.071-0.318-0.538-0.662-0.979-0.765-0.979s-0.473-0.53-0.821-1.177c-0.349-0.647-0.761-1.176-0.917-1.176s-0.283-0.366-0.283-0.812c0-0.447-0.189-0.876-0.42-0.953-0.324-0.108-0.421-2.512-0.421-10.504 0-7.993 0.097-10.396 0.421-10.504 0.231-0.077 0.42-0.506 0.42-0.953 0-0.446 0.127-0.812 0.283-0.812s0.568-0.529 0.917-1.176c0.348-0.648 0.826-1.177 1.061-1.177s0.428-0.122 0.428-0.271c0-0.15 0.643-0.537 1.428-0.861 0.786-0.323 1.717-0.746 2.068-0.939s2.129-0.433 3.95-0.533l3.31-0.183v-2.271c0-2.194 1.194-3.72 2.156-2.758 0.109 0.109 0.197 0.021 0.197-0.195 0-0.255 0.704-0.392 2.017-0.392 1.109 0 2.017 0.141 2.017 0.314m-9.229 12.978c-0.47 0.471-0.855 1.076-0.855 1.345s-0.152 0.489-0.336 0.489c-0.215 0-0.337 2.745-0.337 7.563s0.122 7.563 0.337 7.563c0.184 0 0.336 0.317 0.336 0.705 0 1.54 2.31 5.009 3.335 5.009 0.252 0 0.362-3.585 0.362-11.765v-11.764h-0.993c-0.616 0-1.318 0.325-1.849 0.855m11.326 58.893l0.088 15.378 1.412 0.102c1.526 0.111 3.462-1.235 3.462-2.408 0-0.303 0.151-0.551 0.336-0.551 0.217 0 0.336-3.754 0.336-10.589 0-6.499-0.124-10.588-0.321-10.588-0.177 0-0.42-0.529-0.542-1.176-0.121-0.647-0.355-1.177-0.519-1.177s-0.299-0.172-0.299-0.381c0-0.21-0.378-0.733-0.84-1.161s-0.841-0.937-0.841-1.131c0-0.53-1.273-1.697-1.852-1.697-0.446 0-0.497 1.849-0.42 15.379" fill="#28bae8"/>
<path d="m306.56 140.86c0 0.381 0.151 0.599 0.336 0.485 0.185-0.115 0.336-0.426 0.336-0.693 0-0.266-0.151-0.484-0.336-0.484s-0.336 0.312-0.336 0.692m-155.57 19.728c14.359 0.049 37.956 0.049 52.437 0 14.481-0.048 2.732-0.088-26.108-0.088s-40.688 0.04-26.329 0.088m-12.047 145.55c21.968 0.048 57.817 0.048 79.663 0 21.847-0.047 3.873-0.086-39.943-0.086-43.815 0-61.689 0.039-39.72 0.086" fill="#3cc"/>
<path d="m198.95 238.39c0.154 0.933 0.202 0.981 0.308 0.308 0.068-0.438-0.014-0.934-0.183-1.103-0.187-0.187-0.236 0.127-0.125 0.795m121.47 18.918c4e-3 0.739 0.072 1.002 0.153 0.584 0.08-0.418 0.077-1.023-7e-3 -1.344-0.084-0.322-0.15 0.02-0.146 0.76" fill="#0ff"/>
</g>
</svg>
