<?xml version="1.0" encoding="UTF-8"?>
<svg display="block" width="28" height="28" version="1.1" viewBox="0 0 400 367.8" xmlns="http://www.w3.org/2000/svg">
<g fill-rule="evenodd">
<path d="m137.99 165.04c0 0.304 0.269 0.552 0.598 0.552 0.488 0 0.514-0.1 0.138-0.552-0.252-0.303-0.52-0.552-0.597-0.552-0.076 0-0.139 0.249-0.139 0.552m-6.255 1.178c0 0.538 1.391 0.635 2.157 0.15 0.347-0.221 0.094-0.365-0.828-0.473-0.925-0.108-1.329-9e-3 -1.329 0.323" fill="#fff"/>
<path d="m183.99 16.042c0 0.322-0.332 0.673-0.736 0.779-0.405 0.106-0.736 0.421-0.736 0.701 0 0.366-0.519 0.509-1.84 0.509-1.327 0-1.84-0.143-1.84-0.512 0-0.637-1.534-1.05-2.76-0.743-0.506 0.127-0.92 0.462-0.92 0.743 0 0.282-0.248 0.512-0.552 0.512s-0.552 0.249-0.552 0.552c0 0.386-0.388 0.552-1.288 0.552-0.899 0-1.288-0.166-1.288-0.552 0-0.417-0.45-0.552-1.84-0.552h-1.84v1.288c0 1.227-0.061 1.288-1.288 1.288-1.042 0-1.288-0.14-1.288-0.736 0-0.572-0.245-0.736-1.104-0.736-0.858 0-1.104 0.164-1.104 0.736 0 0.491-0.245 0.736-0.735 0.736-0.409 0-0.736 0.245-0.736 0.552 0 0.304-0.249 0.552-0.552 0.552-0.304 0-0.552-0.248-0.552-0.552 0-0.385-0.389-0.552-1.288-0.552-0.9 0-1.288 0.167-1.288 0.552 0 0.304-0.249 0.552-0.552 0.552-0.304 0-0.552 0.249-0.552 0.552 0 0.307-0.327 0.552-0.736 0.552s-0.736-0.245-0.736-0.552c0-0.368-0.368-0.552-1.104-0.552-1.017 0-1.104 0.102-1.104 1.288 0 1.043-0.14 1.288-0.736 1.288-0.491 0-0.736-0.245-0.736-0.736 0-0.572-0.245-0.736-1.104-0.736-1.016 0-1.104 0.102-1.104 1.288 0 1.043-0.14 1.288-0.736 1.288-0.422 0-0.736-0.245-0.736-0.575 0-1.145-2.372-0.514-2.508 0.667-0.121 1.047-1.172 1.46-1.172 0.46 0-0.815-2.156-0.735-2.496 0.092-0.152 0.371-0.653 0.644-1.184 0.644-0.769 0-0.939 0.196-1.035 1.196-0.119 1.24-1.541 1.834-1.541 0.644 0-1.436-2.205-0.627-2.258 0.828-0.031 0.854-0.11 1.064-0.209 0.552-0.286-1.482-2.315-1.16-2.322 0.368-4e-3 0.797-0.11 1.032-0.318 0.704-0.561-0.887-2.055-0.362-2.185 0.768-0.098 0.855-0.288 1.012-1.23 1.012-0.805 0-1.168 0.204-1.306 0.736-0.137 0.521-0.502 0.736-1.254 0.736-0.698 0-1.061 0.189-1.061 0.552 0 0.385-0.388 0.552-1.288 0.552s-1.288 0.166-1.288 0.552c0 0.566-1.134 0.746-3.614 0.573-0.969-0.067-1.264 0.074-1.423 0.683-0.145 0.554-0.495 0.767-1.262 0.767-0.928 0-1.061 0.136-1.061 1.08 0 0.756-0.22 1.149-0.736 1.312-0.404 0.129-0.736 0.471-0.736 0.761 0 0.529-1 0.678-3.587 0.536-1.139-0.062-1.196-2e-3 -1.196 1.251 0 0.89-0.169 1.316-0.522 1.316-0.286 0-0.605 0.207-0.707 0.46-0.148 0.368-0.191 0.368-0.214 0-0.072-1.13-2.237-0.507-2.237 0.644 0 1.169-0.159 1.241-2.484 1.113-0.965-0.053-1.196 0.074-1.196 0.656 0 0.412-0.316 0.804-0.736 0.914-0.489 0.128-0.736 0.502-0.736 1.116 0 1.085-0.476 1.323-2.137 1.068-1.016-0.155-1.251-0.056-1.423 0.601-0.113 0.434-0.435 0.788-0.715 0.788-0.303 0-0.509 0.388-0.509 0.96 0 1.004-1.324 2.702-2.116 2.713-0.253 4e-3 -0.46 0.255-0.46 0.559 0 0.571-0.448 0.672-2.484 0.561-0.986-0.054-1.196 0.068-1.196 0.699 0 0.433-0.238 0.764-0.552 0.764-0.363 0-0.552 0.363-0.552 1.061 0 0.751-0.214 1.117-0.736 1.253-0.404 0.106-0.735 0.457-0.735 0.779 0 0.323-0.249 0.587-0.552 0.587-0.304 0-0.552 0.248-0.552 0.552 0 0.303-0.249 0.551-0.552 0.551-0.304 0-0.552 0.23-0.552 0.51s-0.332 0.595-0.736 0.701c-0.405 0.106-0.736 0.456-0.736 0.779s-0.249 0.586-0.552 0.586c-0.304 0-0.552 0.249-0.552 0.552 0 0.304-0.238 0.552-0.527 0.552-0.29 0-0.633 0.332-0.761 0.736-0.129 0.405-0.471 0.736-0.761 0.736s-0.527 0.249-0.527 0.552c0 0.304-0.249 0.552-0.552 0.552-0.304 0-0.552 0.229-0.552 0.509s-0.331 0.596-0.736 0.702-0.736 0.456-0.736 0.779c0 0.322-0.248 0.586-0.552 0.586s-0.552 0.249-0.552 0.552c0 0.304-0.248 0.552-0.552 0.552s-0.552 0.248-0.552 0.552c0 0.372-0.372 0.552-1.138 0.552-0.829 0-1.191 0.2-1.331 0.736-0.106 0.405-0.435 0.736-0.73 0.736-0.374 0-0.517 0.363-0.472 1.196 0.118 2.148 0.017 2.484-0.745 2.484-0.409 0-0.736 0.245-0.736 0.552 0 0.303-0.248 0.552-0.552 0.552-0.306 0-0.552 0.327-0.552 0.736 0 0.599-0.245 0.736-1.316 0.736-1.253 0-1.313 0.057-1.251 1.196 0.112 2.036 0.011 2.484-0.561 2.484-0.303 0-0.552 0.248-0.552 0.552 0 0.385-0.388 0.552-1.288 0.552h-1.288v1.816c0 1.781-0.023 1.819-1.195 1.932-1.257 0.121-1.189-0.027-1.347 2.967-0.024 0.463-0.344 0.644-1.137 0.644-1.08 0-1.104 0.041-1.104 1.84v1.84h-1.288c-1.218 0-1.288 0.068-1.288 1.245 0 0.963-0.179 1.292-0.788 1.451-0.677 0.177-0.757 0.393-0.572 1.536 0.169 1.037 0.059 1.464-0.5 1.942-0.394 0.337-0.716 1.073-0.716 1.636 0 0.928-0.121 1.022-1.328 1.022-1.302 0-1.325 0.026-1.178 1.288 0.122 1.05 0.028 1.288-0.512 1.288-0.49 0-0.662 0.286-0.662 1.104 0 0.736-0.184 1.104-0.552 1.104-0.447 0-0.552 0.588-0.552 3.085 0 2.775-0.074 3.104-0.736 3.277-0.536 0.14-0.736 0.502-0.736 1.331 0 1.019-0.115 1.138-1.104 1.138-1.016 0-1.104 0.102-1.104 1.288 0 1.043-0.14 1.288-0.736 1.288-0.572 0-0.736 0.245-0.736 1.104s0.164 1.104 0.736 1.104c0.491 0 0.736 0.245 0.736 0.736 0 0.596-0.245 0.736-1.288 0.736-1.468 0-2.013 1.964-0.644 2.322 0.614 0.16 0.614 0.171 0 0.211-0.354 0.024-0.644 0.272-0.644 0.552s-0.331 0.596-0.736 0.701c-0.949 0.249-1.02 1.973-0.092 2.216 0.614 0.16 0.614 0.17 0 0.211-0.354 0.024-0.644 0.291-0.644 0.595 0 0.303-0.261 0.552-0.58 0.552-0.422 0-0.562 0.324-0.514 1.196 0.111 2.036 0.01 2.484-0.562 2.484-0.385 0-0.552 0.388-0.552 1.287 0 0.9 0.167 1.288 0.552 1.288 1.13 0 0.55 1.058-0.644 1.173-1.494 0.144-2.026 2.039-0.671 2.394 1.501 0.392 1.053 2.689-0.524 2.689-1.186 0-1.288 0.088-1.288 1.104 0 0.736 0.184 1.104 0.552 1.104 0.385 0 0.552 0.389 0.552 1.288 0 1.186-0.088 1.288-1.104 1.288-1.08 0-1.104 0.041-1.104 1.84 0 1.39 0.135 1.84 0.552 1.84 0.385 0 0.552 0.388 0.552 1.288 0 0.899-0.167 1.288-0.552 1.288-0.304 0-0.552 0.229-0.552 0.509s-0.332 0.595-0.736 0.701c-1.059 0.277-1.059 2.47 0 2.47 1.098 0 1.098 3.515 0 3.863-0.405 0.129-0.736 0.471-0.736 0.761s-0.249 0.527-0.552 0.527c-0.434 0-0.552 0.511-0.552 2.392s0.118 2.392 0.552 2.392c0.46 0 0.552 0.736 0.552 4.416s-0.092 4.416-0.552 4.416c-0.445 0-0.552 0.572-0.552 2.944 0 2.271-0.117 2.944-0.513 2.944-0.659 0-0.959 0.807-0.959 2.575 0 1.769 0.3 2.576 0.959 2.576 0.395 0 0.513 0.668 0.513 2.905 0 2.242 0.126 2.953 0.552 3.116 0.818 0.314 0.818 8.699 0 8.699-0.417 0-0.552 0.45-0.552 1.84 0 1.321 0.143 1.84 0.509 1.84 0.28 0 0.595 0.331 0.701 0.736 0.106 0.404 0.457 0.736 0.779 0.736 0.459 0 0.587 0.401 0.587 1.84 0 1.594-0.098 1.839-0.736 1.839s-0.736 0.246-0.736 1.84c0 1.595 0.098 1.84 0.736 1.84 0.409 0 0.736 0.246 0.736 0.552 0 0.304 0.248 0.552 0.552 0.552 0.385 0 0.552 0.389 0.552 1.288 0 0.9-0.167 1.288-0.552 1.288-0.386 0-0.552 0.389-0.552 1.288 0 0.9 0.166 1.288 0.552 1.288 0.303 0 0.552 0.248 0.552 0.552s0.248 0.552 0.552 0.552c0.306 0 0.552 0.327 0.552 0.736 0 0.42-0.246 0.736-0.573 0.736-1.332 0-0.515 3.48 0.849 3.611 1.309 0.126 1.719 1.173 0.46 1.173-1.06 0-1.06 2.192 0 2.469 0.404 0.106 0.735 0.422 0.735 0.702s0.249 0.509 0.552 0.509c0.304 0 0.552 0.23 0.552 0.512s-0.248 0.608-0.552 0.725c-1.141 0.438-0.688 2.442 0.552 2.442 0.859 0 1.104 0.164 1.104 0.736 0 0.409-0.245 0.736-0.552 0.736-0.368 0-0.552 0.368-0.552 1.104 0 1.017 0.103 1.104 1.288 1.104 1.043 0 1.288 0.14 1.288 0.736 0 0.491-0.245 0.736-0.736 0.736-0.572 0-0.736 0.246-0.736 1.104 0 1.017 0.103 1.104 1.288 1.104 1.043 0 1.288 0.14 1.288 0.736 0 0.409-0.245 0.736-0.552 0.736-1.289 0-0.658 2.204 0.644 2.251 0.658 0.023 0.906 0.118 0.552 0.211-0.928 0.242-0.857 1.967 0.092 2.215 0.405 0.106 0.736 0.41 0.736 0.675s0.29 0.558 0.644 0.65c0.614 0.16 0.614 0.171 0 0.211-0.841 0.056-0.931 2.251-0.092 2.251 0.386 0 0.552 0.388 0.552 1.288 0 1.002 0.149 1.288 0.672 1.288 0.535 0 0.64 0.221 0.514 1.08-0.145 0.99-0.049 1.1 1.168 1.329 1.159 0.217 1.326 0.382 1.326 1.311 0 0.7 0.189 1.063 0.552 1.063 0.386 0 0.552 0.389 0.552 1.288 0 1.033 0.143 1.288 0.719 1.288 0.632 0 0.733 0.302 0.828 2.484 0.077 1.747 0.245 2.457 0.569 2.392 0.298-0.059 0.46 0.362 0.46 1.196 0 1.158 0.102 1.289 1.012 1.294 0.696 4e-3 0.858 0.103 0.52 0.317-0.978 0.62-0.35 2.059 0.952 2.184 0.708 0.069 1.196 0.32 1.196 0.617 0 0.276 0.29 0.578 0.644 0.67 0.613 0.161 0.613 0.171 0 0.211-1.432 0.095-0.815 2.251 0.644 2.251 1.226 0 1.288 0.061 1.288 1.288 0 0.899 0.166 1.288 0.552 1.288 0.303 0 0.552 0.248 0.552 0.552 0 0.306 0.327 0.552 0.736 0.552 0.637 0 0.736 0.245 0.736 1.84 0 1.799 0.024 1.84 1.103 1.84 1.16 0 1.256 0.203 1.11 2.349-0.078 1.16 0.461 1.684 1.742 1.693 0.489 3e-3 0.828 0.232 0.828 0.557 0 0.304 0.231 0.552 0.513 0.552 0.7 0 0.984 0.888 0.715 2.234-0.187 0.934-0.094 1.155 0.562 1.326 0.432 0.113 0.786 0.435 0.786 0.715 0 0.337 0.437 0.509 1.288 0.509 1.043 0 1.288 0.14 1.288 0.736 0 0.409 0.245 0.736 0.552 0.736 0.304 0 0.552 0.248 0.552 0.552s0.248 0.552 0.552 0.552 0.552 0.237 0.552 0.526c0 0.29 0.373 0.599 0.828 0.686l0.828 0.16-0.828 0.05c-1.147 0.069-1.236 2.258-0.092 2.258 0.416 0 0.736 0.245 0.736 0.563 0 0.31 0.248 0.659 0.552 0.776 0.304 0.116 0.552 0.442 0.552 0.724s0.248 0.513 0.552 0.513 0.552 0.248 0.552 0.552c0 0.385 0.388 0.552 1.288 0.552 0.716 0 1.288 0.185 1.288 0.418 0 0.491 1.72 2.158 2.227 2.158 0.192 0 0.349 0.248 0.349 0.552 0 0.303 0.248 0.552 0.552 0.552 0.303 0 0.552 0.263 0.552 0.586s0.331 0.673 0.736 0.779c0.513 0.134 0.736 0.502 0.736 1.214 0 0.569 0.244 1.116 0.552 1.234 0.303 0.116 0.552 0.465 0.552 0.775s0.248 0.563 0.552 0.563c0.303 0 0.552 0.249 0.552 0.552 0 0.417 0.449 0.552 1.839 0.552 1.439 0 1.84 0.128 1.84 0.587 0 0.322 0.332 0.673 0.736 0.779 0.405 0.106 0.736 0.421 0.736 0.701s0.249 0.509 0.552 0.509c0.304 0 0.552 0.249 0.552 0.552 0 0.304 0.249 0.552 0.552 0.552 0.304 0 0.552 0.318 0.552 0.706 0 1.549 0.386 1.87 2.247 1.87 1.356 0 1.801 0.137 1.801 0.552 0 0.304 0.248 0.552 0.552 0.552 0.386 0 0.552 0.388 0.552 1.288v1.288h1.84c1.362 0 1.84 0.139 1.84 0.534 0 0.293 0.232 0.666 0.516 0.828 0.285 0.161 0.574 0.708 0.644 1.214 0.113 0.811 0.329 0.933 1.838 1.03 1.63 0.106 1.722 0.171 1.949 1.38 0.233 1.245 0.274 1.27 2.061 1.27h1.824v1.288c0 1.185 0.087 1.288 1.103 1.288 0.736 0 1.104 0.184 1.104 0.552 0 0.415 0.446 0.552 1.801 0.552 1.261 0 1.864 0.165 2.012 0.552 0.124 0.322 0.676 0.552 1.328 0.552 1.029 0 1.115 0.099 1.115 1.287 0 1.219 0.068 1.288 1.245 1.288 0.936 0 1.293 0.183 1.438 0.736 0.217 0.833 1.916 1.044 2.225 0.276 0.102-0.253 0.199-4e-3 0.215 0.552 0.025 0.873 0.181 1.012 1.133 1.012 0.736 0 1.104 0.184 1.104 0.552 0 0.447 0.588 0.552 3.085 0.552 2.775 0 3.104 0.074 3.277 0.736 0.14 0.536 0.502 0.736 1.331 0.736 1.026 0 1.139 0.112 1.139 1.132 0 1.046 0.091 1.127 1.195 1.067 0.658-0.036 2.066-0.049 3.128-0.028l1.932 0.037v1.288c0 1.186 0.088 1.288 1.104 1.288 0.736 0 1.104-0.184 1.104-0.552 0-0.307 0.327-0.552 0.736-0.552 0.566 0 0.736 0.245 0.736 1.061 0 0.702 0.218 1.118 0.644 1.228 0.9 0.234 1.564-0.048 1.564-0.664 0-0.286 0.331-0.521 0.736-0.521 0.596 0 0.736 0.245 0.736 1.288 0 1.406 1.959 1.996 2.443 0.736 0.384-1.001 1.237-0.621 1.237 0.552 0 1.016 0.102 1.104 1.288 1.104 0.899 0 1.288-0.167 1.288-0.552 0-0.368 0.368-0.552 1.104-0.552 0.843 0 1.104 0.167 1.104 0.706 0 1.852 2.036 2.788 2.469 1.134 0.386-1.477 2.682-1.004 2.682 0.552v1.288h1.84c1.391 0 1.84-0.135 1.84-0.552 0-0.717 0.962-0.717 1.237 0 0.117 0.303 0.466 0.552 0.776 0.552s0.563 0.248 0.563 0.552c0 0.417 0.45 0.552 1.84 0.552s1.84-0.135 1.84-0.552c0-0.386 0.388-0.552 1.288-0.552s1.288 0.166 1.288 0.552c0 0.303 0.248 0.552 0.552 0.552 0.307 0 0.552 0.327 0.552 0.736 0 0.638 0.245 0.736 1.84 0.736 1.594 0 1.84-0.098 1.84-0.736 0-0.666 0.245-0.736 2.576-0.736 2.33 0 2.576 0.07 2.576 0.736 0 0.572 0.245 0.736 1.103 0.736 0.736 0 1.104 0.184 1.104 0.552 0 0.813 6.915 0.813 7.227 0 0.178-0.463 1.305-0.552 6.992-0.552s6.814 0.089 6.992 0.552c0.309 0.807 7.05 0.807 7.359 0 0.121-0.315 0.67-0.552 1.277-0.552 0.819 0 1.064-0.17 1.064-0.736 0-0.666 0.246-0.736 2.576-0.736 2.331 0 2.576 0.07 2.576 0.736 0 1.095 3.287 1.095 3.573 0 0.106-0.405 0.422-0.736 0.702-0.736s0.509-0.249 0.509-0.552c0-0.417 0.45-0.552 1.84-0.552s1.84 0.135 1.84 0.552c0 0.385 0.388 0.552 1.288 0.552 0.899 0 1.288-0.167 1.288-0.552 0-0.304 0.248-0.552 0.552-0.552 0.303 0 0.552-0.249 0.552-0.552 0-0.386 0.388-0.552 1.287-0.552 0.9 0 1.288 0.166 1.288 0.552 0 0.385 0.389 0.552 1.288 0.552 0.912 0 1.288-0.165 1.288-0.564 0-0.31 0.249-0.659 0.552-0.775 0.304-0.117 0.552-0.443 0.552-0.725 0-0.281 0.331-0.512 0.736-0.512 0.491 0 0.736 0.245 0.736 0.736 0 0.572 0.246 0.736 1.104 0.736 0.859 0 1.104-0.164 1.104-0.736 0-0.416 0.245-0.736 0.564-0.736 0.31 0 0.658-0.249 0.775-0.552 0.275-0.717 1.237-0.717 1.237 0 0 0.385 0.388 0.552 1.288 0.552 1.186 0 1.288-0.088 1.288-1.104 0-0.736 0.184-1.104 0.552-1.104 0.303 0 0.552 0.248 0.552 0.552 0 0.385 0.388 0.552 1.288 0.552 1.226 0 1.288-0.061 1.288-1.288 0-0.9 0.166-1.288 0.552-1.288 0.303 0 0.552 0.229 0.552 0.509 0 0.563 0.936 0.892 1.932 0.679 0.354-0.076 0.644-0.374 0.644-0.663 0-0.545 0.462-0.645 2.484-0.534 1.138 0.062 1.195 2e-3 1.195-1.251 0-1.071 0.138-1.316 0.736-1.316 0.491 0 0.736 0.245 0.736 0.736 0 0.572 0.246 0.736 1.104 0.736 0.859 0 1.104-0.164 1.104-0.736 0-0.596 0.246-0.736 1.288-0.736 1.186 0 1.288-0.088 1.288-1.104 0-1.159 0.959-1.376 4.903-1.112 0.775 0.052 1.089-0.125 1.238-0.697 0.145-0.553 0.496-0.767 1.262-0.767 0.943 0 1.066-0.133 1.104-1.196 0.023-0.657 0.118-0.906 0.211-0.552 0.241 0.925 2.322 0.899 2.322-0.028 0-0.541 0.22-0.64 1.126-0.507 0.914 0.134 1.166 0.018 1.331-0.616 0.158-0.601 0.49-0.781 1.45-0.781 0.861 0 1.245-0.17 1.245-0.552 0-0.368 0.368-0.552 1.104-0.552 1.016 0 1.103-0.102 1.103-1.288 0-1.042 0.141-1.287 0.736-1.287 0.409 0 0.736-0.246 0.736-0.552 0-0.365 0.365-0.552 1.077-0.552 0.717 0 1.134-0.216 1.246-0.644 0.16-0.614 0.17-0.614 0.211 0 0.095 1.431 2.25 0.814 2.25-0.644 0-1.374 0.104-1.428 2.484-1.297 1.139 0.062 1.196 2e-3 1.196-1.251v-1.316h1.84c1.799 0 1.84-0.025 1.84-1.104 0-1.149 0.094-1.203 2.208-1.256 1.124-0.028 1.332-0.184 1.64-1.228 0.194-0.658 0.566-1.196 0.828-1.196s0.476-0.331 0.476-0.736c0-0.638 0.245-0.736 1.84-0.736 1.799 0 1.84-0.024 1.84-1.104 0-0.736 0.184-1.104 0.552-1.104 0.306 0 0.552-0.327 0.552-0.736 0-0.49 0.245-0.736 0.736-0.736 0.408 0 0.735-0.245 0.735-0.552 0-0.417 0.45-0.552 1.84-0.552 1.328 0 1.84-0.143 1.84-0.512 0-0.282 0.249-0.608 0.552-0.725 0.304-0.116 0.552-0.446 0.552-0.732 0-0.287 0.331-0.607 0.736-0.713 0.536-0.14 0.736-0.502 0.736-1.331 0-0.767 0.181-1.139 0.552-1.139 0.304 0 0.552-0.248 0.552-0.552 0-0.303 0.249-0.552 0.552-0.552 0.304 0 0.552-0.229 0.552-0.509s0.331-0.595 0.736-0.701 0.736-0.456 0.736-0.779 0.248-0.586 0.552-0.586 0.552-0.249 0.552-0.552c0-0.304 0.248-0.552 0.552-0.552s0.552-0.229 0.552-0.509 0.331-0.596 0.736-0.702 0.736-0.456 0.736-0.779c0-0.322 0.248-0.586 0.552-0.586s0.552-0.249 0.552-0.552c0-0.304 0.248-0.552 0.552-0.552 0.303 0 0.552-0.229 0.552-0.509s0.331-0.596 0.736-0.702 0.736-0.456 0.736-0.779c0-0.407 0.34-0.586 1.115-0.586 0.652 0 1.204-0.229 1.328-0.552 0.116-0.304 0.442-0.552 0.724-0.552 0.37 0 0.513-0.513 0.513-1.84 0-1.39 0.135-1.84 0.552-1.84 0.306 0 0.552-0.327 0.552-0.736 0-0.491 0.245-0.736 0.736-0.736 0.408 0 0.736-0.245 0.736-0.552 0-0.368 0.368-0.552 1.104-0.552 0.694 0 1.103-0.189 1.103-0.509 0-0.28 0.332-0.596 0.736-0.701 0.603-0.158 0.736-0.502 0.736-1.895 0-1.173 0.172-1.768 0.552-1.914 0.304-0.116 0.552-0.442 0.552-0.724 0-0.34 0.433-0.513 1.288-0.513 1.468 0 2.013-1.964 0.644-2.322-0.613-0.16-0.613-0.17 0-0.211 0.354-0.023 0.644-0.28 0.644-0.571 0-0.328 0.455-0.573 1.196-0.644 1.089-0.105 1.2-0.23 1.241-1.403 0.025-0.709 0.066-1.495 0.092-1.748 0.026-0.256 0.538-0.46 1.151-0.46 1.08 0 1.104-0.041 1.104-1.84v-1.84h1.288c1.227 0 1.288-0.061 1.288-1.288 0-0.927 0.162-1.288 0.58-1.288 0.423 0 0.563-0.325 0.515-1.196-0.112-2.048-0.013-2.392 0.745-2.591 0.536-0.14 0.736-0.501 0.736-1.33 0-1.02 0.115-1.139 1.104-1.139 0.971 0 1.104-0.127 1.104-1.061 0-0.751 0.214-1.117 0.736-1.253 0.536-0.14 0.736-0.502 0.736-1.331 0-0.767 0.18-1.139 0.552-1.139 0.382 0 0.552-0.383 0.552-1.245 0-0.952 0.18-1.292 0.766-1.445 0.573-0.15 0.749-0.463 0.697-1.239-0.264-3.944-0.046-4.902 1.113-4.902 0.975 0 1.104-0.126 1.104-1.079 0-0.756 0.22-1.15 0.735-1.313 0.516-0.164 0.736-0.557 0.736-1.313 0-0.834-0.167-1.079-0.736-1.079-0.49 0-0.735-0.245-0.735-0.736 0-0.596 0.245-0.736 1.287-0.736h1.288v-2.921-2.92l1.196-0.115c1.488-0.144 2.118-2.508 0.668-2.508-0.514 0-0.76-0.237-0.76-0.736 0-0.595 0.246-0.736 1.288-0.736 1.186 0 1.288-0.087 1.288-1.104 0-0.736-0.184-1.103-0.552-1.103-0.306 0-0.552-0.328-0.552-0.736 0-0.409 0.246-0.736 0.552-0.736 0.304 0 0.552-0.249 0.552-0.552 0-0.304 0.237-0.552 0.527-0.552 0.634 0 1.053-1.133 0.73-1.972-0.127-0.333-0.462-0.604-0.744-0.604s-0.513-0.249-0.513-0.552c0-0.304 0.157-0.552 0.349-0.552s0.772-0.392 1.288-0.87c1.048-0.971 1.301-2.81 0.387-2.81-0.306 0-0.552-0.327-0.552-0.736s0.246-0.736 0.552-0.736c0.304 0 0.552-0.248 0.552-0.552s0.249-0.552 0.552-0.552c0.369 0 0.552-0.369 0.552-1.115 0-0.653-0.229-1.204-0.552-1.328-0.314-0.121-0.552-0.669-0.552-1.276 0-0.701 0.189-1.065 0.552-1.065 0.307 0 0.552-0.327 0.552-0.736 0-0.49 0.245-0.736 0.736-0.736 0.593 0 0.736-0.245 0.736-1.258 0-1.621-0.317-2.422-0.959-2.422-0.341 0-0.513-0.432-0.513-1.288 0-1.042 0.14-1.287 0.736-1.287 0.409 0 0.736-0.246 0.736-0.552 0-0.304 0.248-0.552 0.552-0.552 0.434 0 0.552-0.512 0.552-2.392 0-1.881-0.118-2.392-0.552-2.392-0.447 0-0.552-0.593-0.552-3.128s0.105-3.128 0.552-3.128c0.386 0 0.552-0.388 0.552-1.288 0-0.899 0.166-1.288 0.552-1.288 0.477 0 0.552-1.349 0.552-9.936 0-8.586-0.075-9.935-0.552-9.935-0.368 0-0.552-0.368-0.552-1.104s-0.184-1.104-0.552-1.104c-0.801 0-0.801-5.959 0-6.624 0.753-0.624 0.787-4.784 0.039-4.784-0.282 0-0.608-0.248-0.724-0.552-0.117-0.303-0.465-0.552-0.775-0.552-0.948 0-0.787-3.535 0.172-3.786 0.506-0.132 0.736-0.502 0.736-1.181 0-0.68-0.23-1.049-0.736-1.182-0.405-0.106-0.736-0.421-0.736-0.701s-0.248-0.509-0.552-0.509c-0.385 0-0.552-0.389-0.552-1.288 0-0.9 0.167-1.288 0.552-1.288 0.386 0 0.552-0.389 0.552-1.288 0-0.9-0.166-1.288-0.552-1.288-0.303 0-0.552-0.248-0.552-0.552s-0.248-0.552-0.552-0.552c-0.306 0-0.552-0.327-0.552-0.736 0-0.42 0.246-0.736 0.572-0.736 1.333 0 0.516-3.48-0.848-3.611-1.177-0.114-1.781-1.173-0.669-1.173 0.634 0 1.053-1.132 0.73-1.972-0.127-0.332-0.462-0.604-0.744-0.604s-0.513-0.248-0.513-0.552c0-0.303-0.248-0.552-0.552-0.552-0.306 0-0.552-0.327-0.552-0.736 0-0.408 0.246-0.736 0.552-0.736 0.368 0 0.552-0.368 0.552-1.103 0-1.017-0.102-1.104-1.288-1.104-1.042 0-1.288-0.141-1.288-0.736 0-0.491 0.246-0.736 0.736-0.736 0.573 0 0.736-0.246 0.736-1.104 0-1.017-0.102-1.104-1.288-1.104-1.042 0-1.288-0.14-1.288-0.736 0-0.409 0.246-0.736 0.552-0.736 0.368 0 0.552-0.368 0.552-1.104 0-0.981-0.122-1.104-1.104-1.104-1.171 0-1.346-0.795-1.113-5.06 0.063-1.138 3e-3 -1.196-1.25-1.196h-1.316v-1.809c0-1.103-0.18-1.882-0.46-1.995-0.368-0.149-0.368-0.191 0-0.215 0.783-0.049 0.576-2.237-0.213-2.237-0.54 0-0.64-0.22-0.507-1.126 0.134-0.914 0.018-1.166-0.615-1.331-0.602-0.158-0.781-0.49-0.781-1.449 0-0.862-0.17-1.245-0.552-1.245-0.368 0-0.552-0.368-0.552-1.104 0-0.859-0.164-1.104-0.736-1.104-0.596 0-0.736-0.246-0.736-1.288 0-0.9-0.167-1.288-0.552-1.288-0.386 0-0.552-0.389-0.552-1.288 0-1.227-0.062-1.288-1.288-1.288-1.175 0-1.288-0.093-1.288-1.065 0-0.588-0.238-1.155-0.531-1.268-0.336-0.129-0.573-0.853-0.644-1.971-0.109-1.698-0.16-1.772-1.309-1.883-1.052-0.102-1.196-0.246-1.196-1.196 0-0.715-0.187-1.081-0.552-1.081-0.417 0-0.552-0.45-0.552-1.84v-1.84h-1.288c-1.042 0-1.288-0.14-1.288-0.736 0-0.404-0.239-0.736-0.532-0.736-0.373 0-0.565-0.52-0.644-1.748-0.107-1.676-0.161-1.752-1.308-1.863-1.255-0.121-1.329-0.279-1.205-2.552 0.048-0.881-0.09-1.196-0.526-1.196-0.325 0-0.687-0.249-0.804-0.552-0.12-0.315-0.669-0.552-1.276-0.552-0.819 0-1.064-0.17-1.064-0.736 0-0.409-0.246-0.736-0.552-0.736-0.565 0-0.684-0.494-0.561-2.327 0.052-0.775-0.124-1.089-0.697-1.238-0.421-0.111-0.766-0.43-0.766-0.71 0-0.318-0.406-0.509-1.08-0.509-0.756 0-1.149-0.22-1.312-0.736-0.129-0.405-0.471-0.736-0.761-0.736s-0.527-0.248-0.527-0.552-0.249-0.552-0.552-0.552c-0.304 0-0.552-0.248-0.552-0.552 0-0.307-0.327-0.552-0.736-0.552-0.491 0-0.736-0.245-0.736-0.736 0-0.409-0.245-0.736-0.552-0.736-0.304 0-0.552-0.248-0.552-0.552 0-0.303-0.248-0.552-0.552-0.552s-0.552-0.248-0.552-0.552c0-0.306-0.327-0.552-0.736-0.552-0.491 0-0.736-0.245-0.736-0.736 0-0.409-0.245-0.736-0.552-0.736-0.304 0-0.552-0.248-0.552-0.552 0-0.303-0.229-0.552-0.509-0.552s-0.596-0.331-0.702-0.736c-0.105-0.404-0.456-0.736-0.778-0.736-0.323 0-0.587-0.248-0.587-0.552 0-0.303-0.248-0.552-0.552-0.552-0.303 0-0.552-0.248-0.552-0.551 0-0.304-0.237-0.552-0.527-0.552s-0.632-0.332-0.761-0.736c-0.128-0.405-0.471-0.736-0.761-0.736-0.289 0-0.527-0.249-0.527-0.552 0-0.304-0.248-0.552-0.552-0.552-0.303 0-0.552-0.249-0.552-0.552 0-0.307-0.327-0.552-0.736-0.552-0.595 0-0.736-0.246-0.736-1.288 0-0.9-0.166-1.288-0.552-1.288-0.303 0-0.552-0.249-0.552-0.552 0-0.564-0.493-0.683-2.326-0.561-0.776 0.052-1.089-0.124-1.239-0.697-0.11-0.421-0.419-0.766-0.686-0.766-0.279 0-0.535-0.509-0.601-1.196-0.111-1.146-0.182-1.197-1.718-1.208-1.079-8e-3 -1.753-0.219-2.064-0.644-0.254-0.348-0.651-0.632-0.882-0.632-0.234 0-0.419-0.569-0.419-1.288 0-1.468-1.965-2.013-2.322-0.644-0.161 0.613-0.171 0.613-0.211 0-0.024-0.354-0.291-0.644-0.595-0.644-0.368 0-0.552-0.368-0.552-1.104 0-1.079-0.041-1.104-1.84-1.104h-1.84v-1.288-1.288h-1.84-1.84v-1.288c0-1.226-0.061-1.288-1.288-1.288-0.927 0-1.288-0.162-1.288-0.58 0-0.422-0.324-0.562-1.196-0.514-2.694 0.147-3.587-1e-3 -3.587-0.596 0-0.322-0.332-0.673-0.736-0.779-0.405-0.106-0.736-0.421-0.736-0.701 0-0.318-0.406-0.509-1.081-0.509-0.95 0-1.095-0.145-1.196-1.196-0.124-1.284-0.013-1.246-3.887-1.349-0.804-0.021-1.196-0.212-1.196-0.583 0-0.417-0.45-0.552-1.84-0.552h-1.84v-1.328c0-1.302-0.026-1.326-1.288-1.178-1.068 0.124-1.288 0.032-1.288-0.54 0-0.547-0.248-0.677-1.196-0.625-0.658 0.036-2.065 0.049-3.128 0.028l-1.932-0.037v-1.288c0-1.186-0.087-1.288-1.104-1.288-0.735 0-1.103 0.184-1.103 0.552 0 0.307-0.328 0.552-0.736 0.552-0.573 0-0.736-0.245-0.736-1.104 0-0.981-0.123-1.104-1.104-1.104-0.736 0-1.104 0.184-1.104 0.552 0 0.307-0.327 0.552-0.736 0.552-0.596 0-0.736-0.245-0.736-1.288 0-1.186-0.088-1.288-1.104-1.288-0.859 0-1.104 0.164-1.104 0.736 0 0.491-0.246 0.736-0.736 0.736-0.596 0-0.736-0.245-0.736-1.288 0-1.186-0.088-1.288-1.104-1.288-0.736 0-1.104 0.184-1.104 0.552 0 0.307-0.327 0.552-0.736 0.552s-0.736-0.245-0.736-0.552c0-0.303-0.248-0.552-0.552-0.552s-0.552-0.248-0.552-0.552c0-0.385-0.388-0.552-1.288-0.552-0.899 0-1.288 0.167-1.288 0.552 0 0.304-0.248 0.552-0.552 0.552-0.303 0-0.552-0.248-0.552-0.552 0-0.307-0.327-0.552-0.736-0.552-0.49 0-0.736-0.245-0.736-0.736 0-0.572-0.245-0.736-1.104-0.736-0.858 0-1.104 0.164-1.104 0.736 0 0.596-0.245 0.736-1.288 0.736-1.226 0-1.288-0.061-1.288-1.288v-1.288h-1.839c-1.391 0-1.84 0.135-1.84 0.552 0 0.386-0.389 0.552-1.288 0.552-0.9 0-1.288-0.166-1.288-0.552 0-0.303-0.249-0.552-0.552-0.552-0.304 0-0.552-0.235-0.552-0.522 0-0.617-1.871-1.106-2.936-0.768-0.409 0.13-0.744 0.473-0.744 0.763 0 0.394-0.513 0.527-2.024 0.527-1.485 0-2.024-0.136-2.024-0.512 0-0.282-0.248-0.608-0.552-0.725-0.304-0.116-0.552-0.465-0.552-0.775 0-0.448-0.489-0.564-2.392-0.564-1.881 0-2.392 0.118-2.392 0.552 0 0.481-1.778 0.552-13.799 0.552s-13.8-0.071-13.8-0.552c0-0.444-0.572-0.552-2.943-0.552-2.449 0-2.944 0.099-2.944 0.587m-60.718 85.522c0 0.698 0.245 0.736 4.818 0.736 4.509 0 4.831-0.047 5.011-0.736 0.386-1.477 2.683-1.004 2.683 0.552 0 1.186 0.087 1.288 1.104 1.288 0.735 0 1.103-0.184 1.103-0.552 0-0.307 0.328-0.552 0.736-0.552 0.573 0 0.736 0.245 0.736 1.104 0 0.971 0.128 1.104 1.061 1.104 0.752 0 1.118 0.214 1.254 0.736 0.14 0.536 0.502 0.736 1.331 0.736 0.766 0 1.138 0.18 1.138 0.552 0 0.417 0.45 0.552 1.84 0.552 1.438 0 1.84 0.128 1.84 0.586 0 0.323 0.331 0.673 0.736 0.779s0.736 0.422 0.736 0.702 0.248 0.509 0.552 0.509 0.552 0.248 0.552 0.552c0 0.303 0.248 0.552 0.552 0.552s0.552 0.263 0.552 0.586 0.331 0.673 0.736 0.779 0.736 0.421 0.736 0.701 0.248 0.509 0.552 0.509c0.303 0 0.552 0.249 0.552 0.552 0 0.304 0.207 0.565 0.46 0.581 0.368 0.024 0.368 0.067 0 0.215-1.174 0.474-0.515 2.332 0.828 2.332 1.226 0 1.288 0.062 1.288 1.288 0 0.9 0.166 1.288 0.552 1.288 0.556 0 0.705 0.954 0.561 3.588-0.063 1.139-3e-3 1.196 1.25 1.196 1.259 0 1.317 0.056 1.317 1.288 0 0.892-0.168 1.288-0.545 1.288-0.666 0-1.09 1.509-0.776 2.76 0.127 0.506 0.476 0.92 0.776 0.92 0.299 0 0.545 0.23 0.545 0.512s0.248 0.608 0.552 0.725c0.389 0.149 0.552 0.757 0.552 2.063 0 1.401-0.135 1.852-0.552 1.852-0.304 0-0.552 0.248-0.552 0.552 0 0.303-0.246 0.552-0.545 0.552-0.3 0-0.649 0.414-0.776 0.919-0.314 1.251 0.11 2.76 0.776 2.76 0.299 0 0.545 0.332 0.545 0.736 0 0.405-0.231 0.736-0.513 0.736s-0.608 0.249-0.724 0.552c-0.117 0.304-0.484 0.552-0.816 0.552-0.473 0-0.571 0.278-0.453 1.288 0.122 1.051 0.028 1.288-0.512 1.288-0.485 0-0.662 0.285-0.662 1.061 0 0.772-0.213 1.117-0.781 1.265-0.634 0.166-0.75 0.418-0.616 1.331 0.133 0.906 0.034 1.127-0.507 1.127-0.561 0-0.672 0.303-0.672 1.84 0 1.39-0.135 1.84-0.552 1.84-0.307 0-0.552 0.327-0.552 0.736 0 0.49-0.245 0.736-0.736 0.736-0.409 0-0.736 0.245-0.736 0.552 0 0.303-0.248 0.552-0.552 0.552s-0.552 0.248-0.552 0.552c0 0.303-0.248 0.552-0.552 0.552s-0.552 0.322-0.552 0.716c0 0.606-0.301 0.734-1.932 0.828-1.744 0.101-1.944 0.201-2.061 1.032-0.167 1.192-0.632 1.451-2.16 1.203-1.055-0.171-1.28-0.081-1.455 0.585-0.15 0.575-0.492 0.787-1.267 0.787-0.967 0-1.061 0.114-1.061 1.288 0 1.043-0.14 1.288-0.736 1.288-0.49 0-0.736-0.245-0.736-0.736 0-0.572-0.245-0.736-1.103-0.736-0.859 0-1.104 0.164-1.104 0.736 0 0.491-0.246 0.736-0.736 0.736-0.409 0-0.736 0.246-0.736 0.552 0 0.386-0.389 0.552-1.288 0.552-0.9 0-1.288-0.166-1.288-0.552 0-0.453-0.654-0.552-3.68-0.552s-3.68 0.099-3.68 0.552c0 0.417-0.45 0.552-1.84 0.552h-1.84v-1.288c0-1.546-2.087-2.012-2.469-0.552-0.333 1.272-1.211 0.872-1.211-0.552v-1.288h-2.392c-2.112 0-2.391-0.082-2.391-0.705 0-1.549-0.387-1.87-2.248-1.87h-1.8v-1.288c0-0.9-0.167-1.288-0.552-1.288-0.304 0-0.552-0.249-0.552-0.552 0-0.304-0.249-0.552-0.552-0.552-0.304 0-0.552-0.249-0.552-0.552 0-0.307-0.327-0.552-0.736-0.552-0.491 0-0.736-0.246-0.736-0.736 0-0.567-0.246-0.736-1.065-0.736-0.607 0-1.155-0.238-1.276-0.552-0.117-0.304-0.466-0.552-0.776-0.552-0.309 0-0.563-0.249-0.563-0.552 0-0.304-0.29-0.571-0.644-0.595-0.613-0.04-0.613-0.05 0-0.211 0.916-0.239 0.9-2.322-0.018-2.322-0.54 0-0.634-0.237-0.512-1.288 0.131-1.123 0.048-1.288-0.649-1.288-0.541 0-0.778-0.208-0.734-0.644 0.166-1.625-0.013-1.932-1.123-1.932-0.736 0-1.104-0.184-1.104-0.552 0-0.303 0.249-0.552 0.552-0.552 0.417 0 0.552-0.449 0.552-1.84v-1.84h-1.288-1.288v-5.703c0-5.459 0.032-5.704 0.736-5.704 0.409 0 0.736-0.245 0.736-0.552 0-0.304 0.249-0.552 0.552-0.552 0.369 0 0.552-0.369 0.552-1.116 0-0.652-0.229-1.203-0.552-1.327-1.001-0.384-0.62-1.237 0.552-1.237 1.11 0 1.289-0.307 1.123-1.932-0.043-0.426 0.191-0.644 0.694-0.644 0.6 0 0.759-0.234 0.759-1.115 0-0.652 0.229-1.204 0.552-1.328 0.387-0.148 0.552-0.751 0.552-2.012v-1.801h1.288c0.899 0 1.288-0.166 1.288-0.552 0-0.303 0.248-0.552 0.552-0.552 0.417 0 0.552-0.449 0.552-1.839v-1.84h1.84 1.84v-1.288c0-1.043 0.14-1.288 0.736-1.288 0.409 0 0.736-0.246 0.736-0.552 0-0.363 0.363-0.552 1.061-0.552 0.751 0 1.117-0.215 1.253-0.736 0.106-0.405 0.457-0.736 0.779-0.736 0.323 0 0.586-0.249 0.586-0.552 0-0.448 0.593-0.552 3.128-0.552s3.128-0.105 3.128-0.552c0-0.304 0.249-0.552 0.552-0.552 0.307 0 0.552-0.327 0.552-0.736 0-0.596 0.245-0.736 1.288-0.736s1.288 0.14 1.288 0.736m149.77 0c0 0.703 0.245 0.736 5.52 0.736 5.274 0 5.52-0.033 5.52-0.736 0-0.491 0.245-0.736 0.736-0.736 0.497 0 0.736 0.245 0.736 0.758 0 0.443 0.163 0.657 0.392 0.515 0.217-0.134 0.484 0.104 0.595 0.53 0.25 0.955 2.692 1.155 2.692 0.221 0-0.304 0.249-0.552 0.552-0.552 0.368 0 0.552 0.368 0.552 1.104 0 1.016 0.103 1.104 1.288 1.104 1.043 0 1.288 0.14 1.288 0.736 0 0.842 2.184 1.112 2.237 0.276 0.023-0.368 0.066-0.368 0.215 0 0.102 0.253 0.41 0.46 0.684 0.46 0.292 0 0.545 0.492 0.613 1.196 0.121 1.256-0.027 1.189 2.967 1.346 0.354 0.018 0.644 0.282 0.644 0.586 0 0.303 0.254 0.552 0.564 0.552 0.309 0 0.658 0.248 0.775 0.552 0.116 0.303 0.442 0.552 0.724 0.552 0.37 0 0.513 0.512 0.513 1.839 0 1.322 0.143 1.84 0.509 1.84 0.28 0 0.596 0.332 0.701 0.736 0.141 0.536 0.502 0.736 1.331 0.736 0.963 0 1.139 0.14 1.139 0.901 0 0.938 1.43 2.779 2.158 2.779 0.284 0 0.418 1.18 0.418 3.68v3.68h1.104c1.079 0 1.104 0.041 1.104 1.84 0 1.39-0.135 1.84-0.552 1.84-0.448 0-0.552 0.593-0.552 3.128s0.104 3.128 0.552 3.128c0.417 0 0.552 0.449 0.552 1.839 0 1.799-0.025 1.84-1.104 1.84-1.017 0-1.104 0.103-1.104 1.288 0 0.9 0.166 1.288 0.552 1.288 1.13 0 0.549 1.058-0.644 1.173-1.09 0.105-1.2 0.23-1.241 1.403-0.137 3.933-0.052 3.68-1.243 3.68-1.151 0-1.775 2.166-0.644 2.237 0.368 0.023 0.368 0.066 0 0.215-0.253 0.102-0.46 0.42-0.46 0.707 0 0.35-0.422 0.521-1.288 0.521-0.9 0-1.288 0.166-1.288 0.552 0 0.303-0.249 0.552-0.552 0.552-0.57 0-0.672 0.448-0.563 2.464 0.064 1.17 0.055 1.176-1.895 1.288-1.913 0.109-1.961 0.139-2.073 1.308-0.113 1.172-0.152 1.196-1.932 1.196h-1.817v1.288c0 1.185-0.087 1.287-1.104 1.287-0.79 0-1.116 0.184-1.146 0.644-0.041 0.614-0.051 0.614-0.211 0-0.358-1.368-2.323-0.824-2.323 0.644 0 1.043-0.14 1.288-0.736 1.288-0.49 0-0.736-0.245-0.736-0.736 0-0.572-0.245-0.736-1.103-0.736-1.017 0-1.104 0.103-1.104 1.288 0 1.417-2.217 2.019-2.709 0.736-0.171-0.444-1.004-0.552-4.283-0.552s-4.112 0.108-4.283 0.552c-0.121 0.315-0.669 0.552-1.276 0.552-0.701 0-1.065-0.188-1.065-0.552 0-0.306-0.327-0.552-0.736-0.552-0.5 0-0.736-0.245-0.736-0.764 0-0.63-0.209-0.752-1.196-0.698-4.295 0.235-5.005 0.068-5.128-1.206-0.101-1.049-0.251-1.199-1.22-1.226-2.306-0.063-2.391-0.108-2.391-1.257 0-1.08-0.041-1.104-1.84-1.104-1.595 0-1.84-0.099-1.84-0.736 0-0.409-0.246-0.736-0.552-0.736-0.304 0-0.552-0.249-0.552-0.552 0-0.304-0.231-0.552-0.513-0.552s-0.608-0.249-0.724-0.552c-0.117-0.304-0.466-0.552-0.776-0.552-0.43 0-0.563-0.432-0.563-1.823 0-1.793-0.022-1.828-1.288-2.065-1.263-0.237-1.288-0.276-1.288-2.041 0-1.354-0.137-1.799-0.552-1.799-0.368 0-0.552-0.368-0.552-1.104 0-1.016-0.102-1.104-1.288-1.104-1.043 0-1.288-0.14-1.288-0.736 0-0.49 0.245-0.736 0.736-0.736 0.573 0 0.736-0.245 0.736-1.104 0-1.016-0.102-1.104-1.288-1.104-1.227 0-1.288-0.061-1.288-1.288 0-0.899 0.167-1.288 0.552-1.288 0.438 0 0.552-0.531 0.552-2.575 0-2.045-0.114-2.576-0.552-2.576-0.303 0-0.552-0.249-0.552-0.552 0-0.304 0.249-0.552 0.552-0.552 0.434 0 0.552-0.511 0.552-2.392s-0.118-2.392-0.552-2.392c-1.287 0-0.674-2.518 0.644-2.645 1.488-0.143 2.117-2.507 0.667-2.507-1.276 0-0.887-1.045 0.437-1.173 1.052-0.101 1.21-0.259 1.311-1.311 0.072-0.741 0.317-1.196 0.644-1.196 0.359 0 0.529-0.413 0.529-1.288 0-1.055 0.137-1.288 0.758-1.288 0.443 0 0.657-0.163 0.515-0.392-0.134-0.217 0.104-0.484 0.53-0.595 0.652-0.171 0.773-0.483 0.773-1.999 0-1.315 0.141-1.797 0.527-1.797 0.29 0 0.632-0.332 0.761-0.736 0.128-0.405 0.471-0.736 0.761-0.736s0.527-0.249 0.527-0.552c0-0.304 0.248-0.552 0.552-0.552 0.303 0 0.552-0.249 0.552-0.552 0-0.545 0.225-0.611 2.392-0.694 0.966-0.037 1.118-0.192 1.219-1.238 0.121-1.255 0.279-1.33 2.552-1.205 1.146 0.062 1.198 6e-3 1.239-1.343 0.024-0.774 0.119-1.118 0.211-0.764 0.325 1.241 2.322 0.846 2.322-0.46 0-0.859 0.164-1.104 0.736-1.104 0.409 0 0.736 0.245 0.736 0.552 0 0.368 0.368 0.552 1.104 0.552 1.017 0 1.104-0.102 1.104-1.288 0-1.227 0.062-1.288 1.288-1.288 1.043 0 1.288 0.14 1.288 0.736m39.742 131.37v1.84h-1.287c-1.227 0-1.288 0.061-1.288 1.288 0 0.899-0.167 1.288-0.552 1.288-0.822 0-0.739 2.105 0.092 2.322 0.354 0.092 0.023 0.187-0.736 0.211-1.279 0.039-1.38 0.124-1.38 1.146 0 0.736-0.184 1.104-0.552 1.104-0.438 0-0.552 0.532-0.552 2.576 0 2.045-0.114 2.576-0.552 2.576-0.304 0-0.552 0.248-0.552 0.552 0 0.386-0.389 0.552-1.288 0.552h-1.288v1.84 1.84h-1.288-1.288v1.817c0 1.78-0.024 1.818-1.196 1.931-1.146 0.111-1.196 0.183-1.208 1.712-9e-3 1.118-0.202 1.703-0.644 1.951-0.348 0.194-0.632 0.593-0.632 0.887 0 0.364-0.408 0.534-1.288 0.534-1.609 0-2.049 2.161-0.46 2.258l0.828 0.05-0.828 0.159c-0.455 0.088-0.828 0.397-0.828 0.686 0 0.29-0.248 0.526-0.552 0.526-0.303 0-0.552 0.249-0.552 0.552 0 0.304-0.248 0.552-0.552 0.552-0.306 0-0.552 0.327-0.552 0.736 0 0.491-0.245 0.736-0.736 0.736-0.409 0-0.736 0.246-0.736 0.552 0 0.304-0.248 0.552-0.552 0.552-0.303 0-0.552 0.249-0.552 0.552 0 0.304-0.237 0.552-0.527 0.552s-0.632 0.331-0.761 0.736c-0.128 0.405-0.47 0.736-0.76 0.736s-0.527 0.249-0.527 0.552c0 0.304-0.249 0.552-0.552 0.552-0.304 0-0.552 0.237-0.552 0.527s-0.332 0.633-0.736 0.761c-0.405 0.129-0.736 0.471-0.736 0.761s-0.249 0.527-0.552 0.527c-0.304 0-0.552 0.248-0.552 0.552s-0.249 0.552-0.552 0.552c-0.307 0-0.552 0.327-0.552 0.736 0 0.491-0.246 0.736-0.736 0.736-0.409 0-0.736 0.245-0.736 0.552 0 0.417-0.45 0.552-1.84 0.552s-1.84 0.135-1.84 0.552c0 0.303-0.248 0.552-0.552 0.552-0.386 0-0.552 0.388-0.552 1.288 0 0.88-0.169 1.288-0.534 1.288-0.293 0-0.693 0.284-0.887 0.631-0.247 0.442-0.833 0.636-1.95 0.644-1.53 0.012-1.602 0.063-1.712 1.209-0.113 1.172-0.152 1.196-1.932 1.196h-1.817v1.288 1.287h-1.84-1.84v1.288c0 1.176-0.093 1.288-1.064 1.288-0.607 0-1.156 0.238-1.277 0.552-0.116 0.304-0.465 0.552-0.775 0.552s-0.563 0.249-0.563 0.552c0 0.368-0.401 0.569-1.196 0.602-0.658 0.027-1.69 0.069-2.293 0.092-0.906 0.035-1.139 0.234-1.337 1.146-0.131 0.607-0.259 0.886-0.283 0.62-0.091-1.02-2.058-0.335-2.184 0.76-0.107 0.936-0.246 1.016-1.839 1.059-4.619 0.127-4.289 0.027-4.415 1.333l-0.115 1.196h-3.105c-2.859 0-3.105 0.058-3.105 0.736 0 0.409-0.245 0.736-0.552 0.736-0.303 0-0.552 0.248-0.552 0.552 0 0.307-0.327 0.552-0.736 0.552-0.408 0-0.735-0.245-0.735-0.552 0-0.368-0.368-0.552-1.104-0.552-0.982 0-1.104 0.123-1.104 1.104 0 0.859-0.164 1.104-0.736 1.104-0.409 0-0.736-0.245-0.736-0.552 0-0.368-0.368-0.552-1.104-0.552s-1.104 0.184-1.104 0.552c0 0.303-0.264 0.552-0.587 0.552-0.322 0-0.673 0.331-0.779 0.736-0.105 0.405-0.402 0.736-0.658 0.736-0.257 0-0.553-0.331-0.659-0.736-0.157-0.601-0.502-0.736-1.883-0.736-1.445 0-1.69 0.107-1.69 0.736 0 0.409-0.245 0.736-0.552 0.736-0.304 0-0.552 0.248-0.552 0.552 0 0.385-0.388 0.552-1.288 0.552-0.899 0-1.288-0.167-1.288-0.552 0-0.417-0.45-0.552-1.84-0.552s-1.84 0.135-1.84 0.552c0 0.306-0.327 0.552-0.736 0.552s-0.736 0.245-0.736 0.552c0 0.46-0.736 0.552-4.415 0.552-3.68 0-4.416-0.092-4.416-0.552 0-0.452-0.634-0.552-3.496-0.552s-3.496 0.1-3.496 0.552c0 0.46-0.736 0.552-4.416 0.552s-4.416-0.092-4.416-0.552c0-0.386-0.388-0.552-1.288-0.552-0.899 0-1.288-0.167-1.288-0.552 0-0.417-0.449-0.552-1.839-0.552-1.391 0-1.84 0.135-1.84 0.552 0 0.385-0.389 0.552-1.288 0.552-0.9 0-1.288-0.167-1.288-0.552 0-0.304-0.249-0.552-0.552-0.552-0.307 0-0.552-0.327-0.552-0.736 0-0.578-0.246-0.736-1.139-0.736-0.829 0-1.19 0.2-1.331 0.736-0.135 0.516-0.501 0.736-1.228 0.736-0.713 0-1.109-0.23-1.27-0.736-0.129-0.405-0.471-0.736-0.761-0.736s-0.527-0.249-0.527-0.552c0-0.368-0.368-0.552-1.104-0.552s-1.104 0.184-1.104 0.552c0 0.307-0.327 0.552-0.736 0.552-0.572 0-0.736-0.245-0.736-1.104 0-1.016-0.102-1.104-1.288-1.104-0.899 0-1.288 0.166-1.288 0.552 0 0.304-0.248 0.552-0.552 0.552-0.303 0-0.552-0.248-0.552-0.552 0-0.417-0.449-0.552-1.84-0.552h-1.84v-1.288c0-1.227-0.061-1.288-1.288-1.288-0.899 0-1.287 0.167-1.287 0.552 0 1.13-1.058 0.549-1.173-0.644-0.104-1.081-0.23-1.196-1.311-1.192-0.917 2e-3 -1.196-0.155-1.196-0.672 0-0.531-0.257-0.662-1.196-0.611-3.3 0.181-5.06-0.014-5.06-0.561 0-0.385-0.388-0.552-1.288-0.552-1.043 0-1.288-0.14-1.288-0.736 0-0.409-0.245-0.736-0.552-0.736-0.304 0-0.552-0.248-0.552-0.552 0-0.385-0.388-0.552-1.288-0.552-1.226 0-1.288-0.061-1.288-1.288 0-1.185-0.087-1.288-1.104-1.288-0.736 0-1.104-0.184-1.104-0.552 0-0.416-0.447-0.552-1.816-0.552-1.781 0-1.819-0.023-1.932-1.195-0.113-1.167-0.164-1.199-2.047-1.308l-1.932-0.111v-1.269c0-0.882-0.168-1.268-0.552-1.268-0.304 0-0.552-0.261-0.552-0.58 0-0.423-0.325-0.563-1.196-0.515-2.036 0.111-2.484 0.01-2.484-0.561 0-0.304-0.238-0.552-0.529-0.552-0.327 0-0.572-0.455-0.644-1.196-0.109-1.135-0.2-1.202-1.771-1.314-0.948-0.067-1.781-0.342-1.95-0.644-0.162-0.289-0.535-0.526-0.828-0.526-0.294 0-0.534-0.331-0.534-0.736 0-0.409-0.245-0.736-0.552-0.736-0.304 0-0.552-0.248-0.552-0.552 0-0.307-0.327-0.552-0.736-0.552-0.415 0-0.736-0.245-0.736-0.564 0-0.309-0.248-0.658-0.552-0.775-0.303-0.116-0.552-0.442-0.552-0.724s-0.248-0.513-0.552-0.513c-0.303 0-0.552-0.248-0.552-0.552 0-0.307-0.327-0.552-0.736-0.552-0.49 0-0.736-0.245-0.736-0.736 0-0.409-0.245-0.736-0.552-0.736-0.303 0-0.552-0.248-0.552-0.552 0-0.303-0.248-0.552-0.552-0.552-0.303 0-0.552-0.248-0.552-0.552 0-0.306-0.327-0.552-0.736-0.552-0.637 0-0.736-0.245-0.736-1.84 0-1.39-0.135-1.84-0.552-1.84-0.306 0-0.552-0.327-0.552-0.736 0-0.595-0.245-0.735-1.287-0.735-0.9 0-1.288-0.167-1.288-0.552 0-0.304-0.249-0.552-0.552-0.552-0.572 0-0.673-0.448-0.561-2.484 0.054-0.987-0.069-1.196-0.699-1.196-0.519 0-0.764-0.237-0.764-0.736 0-0.573-0.246-0.736-1.104-0.736-0.793 0-1.114-0.182-1.138-0.644-0.157-2.995-0.09-2.846-1.346-2.967-1.255-0.121-1.33-0.279-1.205-2.553 0.051-0.939-0.08-1.196-0.61-1.196-0.518 0-0.675-0.28-0.673-1.196 4e-3 -1.081-0.111-1.207-1.192-1.311-1.039-0.1-1.196-0.251-1.196-1.153 0-0.728-0.219-1.095-0.736-1.23-0.405-0.106-0.736-0.457-0.736-0.779 0-0.323-0.248-0.587-0.552-0.587-0.368 0-0.552-0.368-0.552-1.104s-0.184-1.104-0.552-1.104c-0.417 0-0.552-0.449-0.552-1.84 0-1.211-0.157-1.849-0.46-1.869-0.368-0.023-0.368-0.066 0-0.214 0.81-0.327 0.573-2.332-0.276-2.332-0.596 0-0.736-0.246-0.736-1.288v-1.288h109.11 109.11v1.84" fill="#26abe2"/>
<path d="m366.24 239.81c0.355 0.093 0.934 0.093 1.288 0 0.354-0.092 0.065-0.168-0.644-0.168-0.708 0-0.998 0.076-0.644 0.168" fill="#0ff"/>
</g>
</svg>
