<?xml version="1.0" standalone="no"?>
<!DOCTYPE svg PUBLIC "-//W3C//DTD SVG 20010904//EN"
 "http://www.w3.org/TR/2001/REC-SVG-20010904/DTD/svg10.dtd">
<svg version="1.0" xmlns="http://www.w3.org/2000/svg"
 width="38" height="38" viewBox="0 0 440.000000 304.000000"
 preserveAspectRatio="xMidYMid meet">

<g transform="translate(0.000000,304.000000) scale(0.100000,-0.100000)"
fill="#26abe2" stroke="none">
<path d="M1586 2786 c-496 -188 -610 -235 -617 -252 -4 -12 -17 -80 -30 -150
-31 -181 -31 -427 0 -609 83 -477 332 -920 742 -1320 74 -72 169 -159 211
-193 95 -77 263 -190 294 -198 67 -17 385 223 613 462 382 400 612 845 676
1310 28 197 12 508 -35 684 l-9 35 -608 229 c-335 126 -612 230 -618 231 -5 2
-284 -101 -619 -229z m771 -404 c54 -28 104 -78 129 -128 16 -32 20 -65 22
-190 l3 -152 45 -5 c53 -6 105 -42 128 -91 15 -32 17 -70 14 -315 -3 -266 -4
-281 -24 -308 -11 -15 -36 -38 -54 -50 -33 -23 -35 -23 -418 -23 -370 0 -386
1 -418 21 -18 11 -42 35 -53 53 -20 32 -21 49 -21 315 0 308 1 315 59 364 17
14 44 28 61 32 l30 7 0 127 c0 168 14 216 84 286 72 72 113 85 256 82 96 -2
122 -6 157 -25z"/>
<path d="M2120 2244 c-81 -30 -90 -51 -90 -209 l0 -125 160 0 160 0 0 115 c0
178 -24 215 -148 221 -37 2 -74 1 -82 -2z"/>
</g>
</svg>
