<?xml version="1.0" standalone="no"?>
<!DOCTYPE svg PUBLIC "-//W3C//DTD SVG 20010904//EN"
 "http://www.w3.org/TR/2001/REC-SVG-20010904/DTD/svg10.dtd">
<svg version="1.0" xmlns="http://www.w3.org/2000/svg"
 width="38" height="38" viewBox="0 0 300.000000 208.000000"
 preserveAspectRatio="xMidYMid meet">

<g transform="translate(0.000000,208.000000) scale(0.100000,-0.100000)"
fill="#26abe2" stroke="none">
<path d="M1216 2030 c-168 -12 -266 -31 -361 -71 -92 -38 -153 -82 -180 -131
-11 -20 -60 -148 -110 -286 l-90 -250 -67 -4 c-81 -4 -113 -24 -146 -91 -33
-65 -40 -122 -17 -147 14 -16 31 -20 77 -20 32 0 58 -3 58 -7 0 -5 -7 -30 -15
-57 -12 -40 -15 -125 -15 -463 l0 -415 29 -29 29 -29 194 0 c218 0 230 3 248
68 5 20 10 70 10 110 l0 72 620 0 620 0 0 -85 c0 -91 14 -136 49 -155 12 -6
99 -10 210 -10 186 0 190 0 218 24 l28 24 3 408 c2 378 0 437 -24 522 -6 21
-4 22 48 22 61 0 98 20 98 54 0 46 -42 146 -72 171 -25 21 -39 25 -99 25 -82
0 -62 -32 -169 265 -86 237 -114 302 -143 333 -58 63 -198 115 -364 137 -142
19 -498 26 -667 15z m511 -190 c166 -11 295 -35 352 -64 44 -21 45 -24 93
-151 53 -143 121 -366 113 -373 -2 -3 -37 -13 -77 -22 l-73 -17 -12 40 c-20
65 -60 114 -116 142 -59 29 -76 30 -135 10 -33 -12 -51 -13 -85 -4 -23 6 -52
13 -65 16 -38 9 -108 -25 -150 -73 -36 -40 -48 -69 -67 -158 l-6 -29 -177 6
c-230 9 -397 28 -577 67 -85 18 -84 13 -46 147 37 128 117 350 134 371 20 25
83 51 163 67 154 31 482 42 731 25z m331 -537 c30 -40 -4 -101 -50 -90 -33 9
-62 61 -49 86 6 11 16 22 23 25 20 8 62 -4 76 -21z m-386 0 c26 -23 22 -48
-13 -77 -37 -31 -43 -32 -69 -6 -55 55 24 135 82 83z m-937 -420 c128 -51 223
-100 235 -122 18 -35 12 -69 -17 -88 -23 -15 -51 -18 -193 -18 -177 0 -248 15
-270 55 -16 30 -12 162 5 187 30 42 108 38 240 -14z m1688 36 c26 -7 41 -18
47 -35 13 -33 13 -150 0 -173 -20 -39 -86 -54 -255 -58 -140 -4 -164 -2 -195
14 -29 15 -36 24 -38 55 -3 31 2 40 30 61 56 42 300 140 363 146 6 0 27 -4 48
-10z"/>
<path d="M1746 1707 c-131 -75 -79 -281 72 -281 91 0 152 61 152 151 0 119
-121 189 -224 130z"/>
<path d="M894 1635 c-9 -22 -2 -26 78 -47 87 -22 158 -66 208 -130 42 -52 80
-142 80 -187 0 -31 22 -57 40 -46 16 10 12 56 -10 129 -48 154 -178 261 -353
291 -29 5 -39 2 -43 -10z"/>
</g>
</svg>
