<?xml version="1.0" standalone="no"?>
<!DOCTYPE svg PUBLIC "-//W3C//DTD SVG 20010904//EN"
 "http://www.w3.org/TR/2001/REC-SVG-20010904/DTD/svg10.dtd">
<svg version="1.0" xmlns="http://www.w3.org/2000/svg"
 width="38" height="38" viewBox="0 0 225.000000 225.000000"
 preserveAspectRatio="xMidYMid meet">

<g transform="translate(0.000000,225.000000) scale(0.100000,-0.100000)"
fill="#26abe2" stroke="none">
<path d="M1017 2143 c-2 -5 -12 -47 -22 -95 l-18 -86 -63 -16 c-35 -9 -88 -27
-117 -40 l-53 -23 -73 63 c-39 35 -75 64 -80 64 -10 0 -118 -75 -147 -102
l-22 -20 39 -84 c21 -46 39 -89 39 -95 0 -6 -13 -26 -29 -44 -15 -18 -44 -58
-62 -89 l-34 -57 -65 6 c-36 3 -83 8 -106 11 -41 6 -41 5 -59 -38 -21 -53 -45
-129 -45 -145 0 -7 41 -36 90 -65 l90 -53 0 -110 0 -110 -91 -53 c-103 -61
-101 -51 -51 -185 l25 -68 36 5 c20 3 68 8 107 11 l70 7 36 -59 c20 -32 50
-73 66 -92 l29 -35 -39 -88 c-21 -49 -38 -93 -38 -99 0 -10 112 -95 147 -112
19 -9 31 -2 93 53 l72 64 46 -18 c26 -10 79 -27 118 -38 l71 -20 12 -57 c7
-31 17 -73 22 -93 l10 -38 104 0 c90 0 104 2 109 18 2 9 12 51 21 93 l17 77
64 16 c35 9 88 27 117 40 l53 23 73 -63 c82 -73 72 -73 179 4 34 25 62 51 62
56 0 6 -16 48 -37 94 -25 57 -34 88 -27 96 5 7 29 40 54 72 25 33 52 70 61 83
15 24 16 24 115 14 69 -7 101 -6 107 1 9 14 57 163 57 179 0 7 -40 34 -88 60
l-87 48 1 116 2 116 86 49 c47 27 86 55 86 61 0 16 -24 93 -45 145 l-18 44
-56 -6 c-31 -4 -77 -9 -103 -12 -44 -5 -47 -4 -62 24 -9 17 -38 60 -66 96 -27
36 -50 68 -50 72 0 3 16 42 35 85 19 44 35 84 35 90 0 10 -112 95 -147 112
-20 9 -31 3 -85 -45 -35 -30 -68 -57 -74 -61 -6 -4 -38 4 -70 17 -33 13 -85
29 -116 36 l-57 13 -22 94 -21 93 -104 0 c-56 0 -105 -3 -107 -7z m318 -357
c291 -93 485 -358 485 -661 0 -426 -392 -758 -805 -682 -257 47 -446 207 -541
459 -26 67 -28 84 -29 218 0 126 3 154 23 215 79 238 274 412 527 471 90 21
241 12 340 -20z"/>
<path d="M1010 1684 c-257 -55 -449 -292 -450 -555 0 -91 33 -211 80 -290 68
-114 197 -218 321 -258 55 -18 170 -30 166 -17 -2 6 -14 12 -28 14 -44 6 -123
34 -175 63 -285 160 -350 533 -131 751 191 191 508 150 613 -78 l24 -50 107
-13 c60 -7 119 -15 132 -18 23 -6 24 -4 18 33 -12 75 -76 185 -151 260 -142
142 -335 200 -526 158z"/>
<path d="M1064 1241 c-46 -28 -64 -59 -64 -111 0 -53 15 -86 50 -112 44 -32
92 -34 152 -5 43 21 94 31 263 52 115 14 215 31 222 37 15 12 17 44 5 52 -5 3
-110 19 -233 35 -160 22 -235 36 -264 51 -49 25 -91 25 -131 1z m116 -61 c30
-30 27 -83 -6 -109 -30 -24 -43 -26 -78 -10 -50 23 -55 101 -9 128 29 17 71
13 93 -9z"/>
<path d="M1660 1036 c0 -9 7 -16 16 -16 9 0 14 5 12 12 -6 18 -28 21 -28 4z"/>
<path d="M1620 885 c0 -20 17 -28 23 -11 3 8 -1 17 -9 20 -8 3 -14 -1 -14 -9z"/>
<path d="M1525 761 c-7 -12 12 -24 25 -16 11 7 4 25 -10 25 -5 0 -11 -4 -15
-9z"/>
<path d="M1405 650 c3 -5 10 -10 16 -10 5 0 9 5 9 10 0 6 -7 10 -16 10 -8 0
-12 -4 -9 -10z"/>
<path d="M1262 589 c2 -6 8 -10 13 -10 5 0 11 4 13 10 2 6 -4 11 -13 11 -9 0
-15 -5 -13 -11z"/>
</g>
</svg>
