<?xml version="1.0" encoding="UTF-8"?>
<svg display="block" width="38" height="38" version="1.1" viewBox="0 0 400 342.62" xmlns="http://www.w3.org/2000/svg">
<g fill-rule="evenodd">
<path d="m279.43 86.718c0 0.66 0.071 0.93 0.157 0.6s0.086-0.87 0-1.2-0.157-0.06-0.157 0.6m-75.407 32.905c0 0.66 0.071 0.93 0.157 0.6s0.086-0.87 0-1.2-0.157-0.06-0.157 0.6m36.682 2.636c0.33 0.086 0.869 0.086 1.199 0 0.33-0.087 0.06-0.157-0.6-0.157-0.659 0-0.929 0.07-0.599 0.157m-36.682 7.647c0 0.66 0.071 0.929 0.157 0.6 0.086-0.33 0.086-0.87 0-1.2s-0.157-0.06-0.157 0.6" fill="#0080ff"/>
<path d="m172.92 153.38c0 47.129 0.04 66.358 0.089 42.731 0.048-23.627 0.048-62.187 0-85.689-0.049-23.503-0.089-4.172-0.089 42.958m113.02-28.621c0 0.66 0.07 0.93 0.156 0.6 0.087-0.33 0.087-0.87 0-1.199-0.086-0.33-0.156-0.06-0.156 0.599m37.703 204.97c0 0.66 0.071 0.93 0.157 0.6s0.086-0.87 0-1.199c-0.086-0.33-0.157-0.06-0.157 0.599" fill="#39c"/>
<path d="m319.2 0.926c-0.236 0.087-0.429 0.448-0.429 0.801 0 0.553-0.318 0.655-2.314 0.742-2.081 0.092-2.324 0.177-2.42 0.852-0.066 0.467-0.39 0.79-0.857 0.857-0.467 0.066-0.79 0.389-0.857 0.857-0.066 0.467-0.389 0.79-0.857 0.857-0.412 0.058-0.769 0.299-0.793 0.535-0.023 0.235-0.062 0.582-0.085 0.771-0.024 0.188-0.352 0.343-0.729 0.343-0.444 0-0.685 0.228-0.685 0.648 0 0.406-0.321 0.729-0.857 0.863-0.54 0.136-0.857 0.458-0.857 0.871 0 0.418-0.279 0.694-0.771 0.764-0.658 0.094-0.787 0.349-0.876 1.738-0.094 1.47-0.186 1.628-0.942 1.628-0.765 0-0.839 0.135-0.839 1.543 0 1.313-0.101 1.542-0.685 1.542-0.418 0-0.692 0.234-0.701 0.6-9e-3 0.33-2e-3 2.952 0.015 5.827l0.031 5.227h-0.872c-0.702 0-0.872 0.167-0.872 0.857 0 0.687-0.171 0.857-0.866 0.857h-0.865l0.094 5.569c0.093 5.483 0.106 5.572 0.865 5.68 0.559 0.079 0.772 0.339 0.772 0.942 0 0.595 0.189 0.833 0.662 0.833 0.364 0 0.758 0.301 0.874 0.668 0.117 0.368 0.513 0.764 0.88 0.88 0.457 0.145 0.668 0.522 0.668 1.19 0 1.423 0.33 2.061 1.065 2.061 0.54 0 0.649 0.257 0.649 1.536 0 1.352 0.103 1.562 0.857 1.751 0.751 0.188 0.857 0.4 0.857 1.72 0 1.377 0.073 1.505 0.857 1.505 0.79 0 0.857 0.124 0.857 1.575 0 1.277 0.127 1.608 0.674 1.751 0.371 0.097 0.767 0.468 0.88 0.825 0.113 0.356 0.431 0.648 0.705 0.648 0.275 0 0.646 0.386 0.826 0.857 0.194 0.511 0.596 0.857 0.996 0.857 0.434 0 0.708 0.272 0.779 0.771 0.07 0.488 0.385 0.811 0.86 0.878 0.467 0.067 0.79 0.39 0.857 0.857 0.088 0.617 0.366 0.769 1.563 0.856 1.147 0.082 1.457 0.239 1.457 0.734 0 0.825 0.656 1.045 3.113 1.045 1.755 0 2.028 0.087 2.028 0.643 0 0.446 0.329 0.708 1.072 0.857 2.061 0.412 5.51 0.06 5.461-0.557-0.011-0.142-0.02-0.411-0.02-0.6 0-0.188 0.836-0.343 1.857-0.343 2.283 0 2.942-0.233 2.942-1.041 0-0.387 0.293-0.667 0.771-0.734 0.495-0.071 0.81-0.385 0.88-0.881 0.095-0.667 0.315-0.771 1.629-0.771 1.391 0 1.518-0.072 1.518-0.857 0-0.686 0.172-0.857 0.857-0.857 0.628 0 0.857-0.183 0.857-0.686 0-0.377 0.154-0.704 0.343-0.728 0.188-0.024 0.535-0.062 0.771-0.086 0.26-0.026 0.469-0.683 0.533-1.671 0.086-1.342 0.22-1.628 0.764-1.628 0.419 0 0.739-0.314 0.876-0.857 0.131-0.523 0.459-0.857 0.842-0.857 0.48 0 0.681-0.359 0.857-1.531 0.161-1.073 0.423-1.592 0.878-1.737 0.554-0.175 0.648-0.552 0.648-2.582 0-2.306 0.026-2.376 0.857-2.376 0.7 0 0.857-0.167 0.857-0.914 0-0.502 0.098-0.816 0.217-0.697 0.327 0.327 1.497-0.403 1.497-0.934 0-0.256 0.385-0.562 0.855-0.68s0.837-0.327 0.816-0.465c-0.233-1.518 0.103-2.822 0.728-2.822 0.653 0 0.686-0.229 0.686-4.799 0-4.478-0.043-4.798-0.649-4.798-0.405 0-0.728-0.321-0.863-0.857-0.139-0.554-0.456-0.857-0.894-0.857-0.649 0-0.679-0.247-0.679-5.649v-5.649l-0.857-0.215c-0.751-0.189-0.857-0.401-0.857-1.721 0-1.377-0.073-1.505-0.857-1.505-0.788 0-0.857-0.125-0.857-1.551 0-1.339-0.117-1.595-0.857-1.876-0.471-0.18-0.856-0.551-0.856-0.826s-0.309-0.597-0.686-0.717-0.685-0.516-0.685-0.88c0-0.473-0.239-0.662-0.834-0.662-0.602 0-0.863-0.213-0.942-0.772-0.069-0.488-0.385-0.81-0.86-0.877-0.467-0.067-0.79-0.39-0.857-0.857-0.067-0.475-0.39-0.791-0.878-0.86-0.558-0.079-0.771-0.34-0.771-0.943 0-0.803-0.087-0.833-2.399-0.833-2.126 0-2.399-0.074-2.399-0.649 0-0.356-0.232-0.737-0.515-0.846-0.605-0.232-14.882-0.212-15.509 0.022m-316.38 16.623c-0.227 0.226-0.412 0.612-0.412 0.857s-0.308 0.446-0.685 0.446c-0.617 0-0.848 0.36-0.723 1.123 0.024 0.147-0.189 0.356-0.474 0.465-0.778 0.299-0.781 24.287-3e-3 24.585 0.283 0.109 0.514 0.511 0.514 0.894 0 0.634 0.216 0.696 2.4 0.696h2.399v105.06 105.06h-2.914-2.913v12.988c0 11.264 0.069 13.014 0.517 13.187 0.285 0.109 0.498 0.318 0.474 0.465-0.024 0.146-0.026 0.459-3e-3 0.695 0.032 0.342 23.701 0.428 117.09 0.428h117.05v-0.857c0-0.685 0.171-0.857 0.857-0.857h0.857v-11.287-11.287l-0.772-0.11c-0.495-0.07-0.81-0.385-0.88-0.88-0.105-0.738-0.251-0.772-3.342-0.772h-3.233v-49.186-49.185h-0.857c-0.685 0-0.856-0.172-0.856-0.857 0-0.785-0.128-0.857-1.519-0.857-1.314 0-1.533-0.104-1.628-0.771-0.094-0.659-0.348-0.787-1.738-0.876-1.47-0.094-1.628-0.186-1.628-0.943 0-0.765-0.135-0.838-1.542-0.838-1.421 0-1.711-0.197-1.594-1.081 0.057-0.433-0.898-0.571-3.582-0.516l-2.708 0.055-0.087 51.671-0.086 51.671h-92.716-92.715v-105.91-105.91h92.717 92.716v27.078 27.078h6.512 6.513v0.857c0 0.833 0.068 0.857 2.399 0.857h2.399v-28.62-28.621h3.257c3.244 0 3.256-3e-3 3.256-0.856 0-0.687 0.171-0.857 0.862-0.857h0.862l-0.091-10.54-0.091-10.54-0.771-0.11c-0.499-0.071-0.771-0.345-0.771-0.779 0-0.4-0.346-0.802-0.857-0.996-0.525-0.2-0.857-0.595-0.857-1.02v-0.694h-115.1c-89.064 0-115.19 0.093-115.51 0.411m142.32 49.803c-0.135 0.536-0.458 0.857-0.864 0.857-0.634 0-0.648 1.856-0.648 85.176s0.014 85.175 0.648 85.175c0.406 0 0.729 0.321 0.864 0.857l0.215 0.857h13.512c7.757 0 13.595-0.133 13.705-0.312 0.136-0.219 0.278-129.15 0.191-173.12 0-0.223-4.797-0.343-13.704-0.343h-13.704l-0.215 0.857m160.78 2.514c-0.095 0.094-0.172 0.454-0.172 0.8 0 0.503-0.269 0.628-1.359 0.628-1.304 0-2.415 0.91-1.828 1.497 0.119 0.119-0.195 0.217-0.697 0.217-0.747 0-0.914 0.157-0.914 0.857 0 0.832-0.069 0.857-2.393 0.857-2.267 0-2.404 0.045-2.608 0.856-0.203 0.811-0.343 0.857-2.577 0.857-2.134 0-2.362 0.067-2.362 0.686 0 0.625-1.32 0.964-2.828 0.726-0.263-0.042-0.382 0.481-0.283 1.245 0.038 0.293-0.489 0.428-1.673 0.428-1.616 0-1.729 0.056-1.729 0.857 0 0.686-0.171 0.857-0.857 0.857-0.685 0-0.857 0.171-0.857 0.857 0 0.625-0.183 0.857-0.679 0.857-0.436 0-0.755 0.302-0.891 0.845-0.117 0.465-0.312 0.833-0.435 0.817-0.88-0.116-1.079 0.174-1.079 1.57 0 1.314-0.104 1.533-0.772 1.628-0.488 0.07-0.81 0.385-0.878 0.86-0.066 0.467-0.389 0.79-0.857 0.857-0.467 0.066-0.79 0.389-0.856 0.857-0.067 0.467-0.39 0.79-0.857 0.857-0.614 0.087-0.769 0.366-0.854 1.53-0.086 1.183-0.246 1.46-0.941 1.635-0.46 0.115-0.819 0.323-0.798 0.461 0.116 0.754-0.116 1.108-0.728 1.108-0.594 0-0.686 0.228-0.686 1.713 0 1.6-0.057 1.714-0.857 1.714-0.612 0-0.857 0.185-0.857 0.649 0 0.405-0.32 0.728-0.856 0.863-0.752 0.189-0.857 0.4-0.857 1.727 0 1.307-0.105 1.527-0.772 1.622-0.495 0.07-0.81 0.385-0.88 0.88-0.071 0.496-0.346 0.772-0.771 0.772-0.673 0-0.789 0.371-0.673 2.142 0.053 0.8-0.071 0.942-0.82 0.942-0.707 0-0.883 0.167-0.883 0.833 0 0.603-0.213 0.864-0.771 0.943-0.658 0.094-0.787 0.348-0.876 1.738-0.088 1.375-0.213 1.628-0.803 1.628-0.411 0-0.773 0.283-0.878 0.685-0.099 0.377-0.316 0.705-0.482 0.729-0.167 0.023-0.496 0.062-0.731 0.085-0.236 0.024-0.448 0.236-0.472 0.472-0.023 0.235-0.062 0.564-0.085 0.731-0.024 0.166-0.352 0.383-0.729 0.482-0.56 0.146-0.685 0.467-0.685 1.754 0 1.451-0.068 1.574-0.857 1.574-0.686 0-0.857 0.172-0.857 0.857 0 0.686-0.172 0.857-0.857 0.857-0.785 0-0.857 0.127-0.857 1.519 0 1.313-0.104 1.533-0.771 1.628-0.496 0.07-0.81 0.385-0.881 0.88-0.078 0.552-0.34 0.772-0.919 0.772-0.578 0-0.84-0.22-0.918-0.772-0.09-0.633-0.357-0.789-1.492-0.873-1.04-0.076-1.465-0.289-1.714-0.856-0.254-0.578-0.674-0.78-1.788-0.861-1.178-0.085-1.457-0.233-1.457-0.771 0-0.558-0.243-0.666-1.505-0.666-1.32 0-1.532-0.106-1.721-0.857-0.188-0.752-0.4-0.857-1.727-0.857-1.307 0-1.527-0.104-1.621-0.771-0.092-0.643-0.355-0.789-1.583-0.877-1.196-0.087-1.533-0.264-1.791-0.943-0.263-0.692-0.552-0.836-1.673-0.836-1.145 0-1.373-0.12-1.466-0.772-0.113-0.8-0.183-0.828-2.166-0.899-0.957-0.034-1.199-0.182-1.199-0.729 0-0.584-0.229-0.685-1.543-0.685-1.417 0-1.542-0.07-1.542-0.857 0-0.798-0.116-0.857-1.69-0.857-1.492 0-1.703-0.091-1.8-0.771-0.173-1.22-7.71-1.394-7.882-0.183-0.095 0.671-0.342 0.797-1.739 0.887-1.47 0.094-1.628 0.186-1.628 0.943 0 0.622-0.185 0.838-0.717 0.838-0.43 0-0.79 0.275-0.897 0.685-0.099 0.377-0.316 0.705-0.482 0.729-0.167 0.023-0.496 0.062-0.732 0.085-0.235 0.024-0.475 0.375-0.533 0.78-0.058 0.404-0.405 0.814-0.771 0.91-0.538 0.141-0.667 0.478-0.667 1.749 0 1.451-0.067 1.574-0.856 1.574h-0.857v3.942c0 2.371 0.136 3.959 0.342 3.985 0.189 0.023 0.536 0.062 0.772 0.085 0.26 0.026 0.469 0.683 0.533 1.671 0.084 1.314 0.226 1.628 0.734 1.628 0.385 0 0.713 0.332 0.844 0.857 0.139 0.553 0.456 0.857 0.894 0.857 0.449 0 0.679 0.231 0.679 0.679 0 0.438 0.304 0.755 0.857 0.894 0.536 0.135 0.857 0.458 0.857 0.864 0 0.539 0.258 0.648 1.543 0.648 0.848 0 1.561 0.154 1.585 0.343 0.023 0.188 0.062 0.535 0.085 0.771 0.026 0.259 0.679 0.469 1.65 0.532 1.355 0.087 1.623 0.221 1.714 0.857 0.068 0.478 0.389 0.793 0.878 0.863 0.558 0.079 0.771 0.339 0.771 0.942 0 0.759 0.138 0.833 1.543 0.833 1.394 0 1.6 0.126 1.517 0.93-0.038 0.367 1.087 0.733 2.339 0.76 0.877 0.019 1.114 0.17 1.114 0.71 0 0.594 0.228 0.685 1.714 0.685 0.942 0 1.695 0.116 1.673 0.257-0.191 1.208 0.08 1.457 1.583 1.457 1.417 0 1.542 0.07 1.542 0.857 0 0.8 0.114 0.857 1.714 0.857s1.714 0.057 1.714 0.857c0 0.787 0.125 0.857 1.542 0.857 1.115 0 1.543 0.137 1.543 0.493 0 0.726 0.658 1.013 2.125 0.927 1.186-0.07 1.302 0 1.302 0.794 0 0.8 0.122 0.87 1.505 0.87 1.32 0 1.532 0.106 1.721 0.857 0.189 0.755 0.398 0.857 1.751 0.857 1.4 0 1.536 0.074 1.536 0.838 0 0.757 0.158 0.849 1.628 0.943 0.988 0.063 1.645 0.273 1.671 0.533 0.023 0.235 0.062 0.569 0.085 0.74 0.024 0.172 2.507 0.332 5.517 0.356l5.475 0.045 0.214-0.853c0.178-0.712 0.447-0.869 1.638-0.956 1.164-0.085 1.443-0.24 1.53-0.854 0.067-0.467 0.39-0.79 0.857-0.856 0.468-0.067 0.791-0.39 0.857-0.857 0.067-0.468 0.39-0.791 0.857-0.857 0.613-0.088 0.769-0.366 0.854-1.528 0.079-1.089 0.266-1.464 0.797-1.603 0.381-0.1 0.776-0.501 0.879-0.892 0.103-0.396 0.466-0.711 0.819-0.711 0.502 0 0.681-0.357 0.861-1.714 0.181-1.365 0.358-1.714 0.869-1.714 0.413 0 0.641-0.244 0.641-0.685 0-0.377 0.155-0.705 0.343-0.729 0.189-0.023 0.536-0.062 0.771-0.085 0.26-0.026 0.47-0.684 0.533-1.671 0.095-1.47 0.186-1.628 0.943-1.628 0.665 0 0.838-0.177 0.838-0.857 0-0.626 0.183-0.857 0.679-0.857 0.438 0 0.755-0.304 0.894-0.857 0.135-0.536 0.458-0.857 0.863-0.857 0.539 0 0.649-0.258 0.649-1.519 0-1.314 0.104-1.533 0.771-1.628 0.488-0.069 0.81-0.385 0.878-0.859 0.066-0.468 0.39-0.791 0.857-0.857 0.624-0.089 0.784-0.395 0.953-1.821 0.112-0.942 0.228-1.593 0.257-1.445 0.093 0.465 1.425-0.438 1.425-0.966 0-0.276 0.224-0.502 0.497-0.502 0.274 0 0.655-0.27 0.847-0.6 0.238-0.409 0.352 31.743 0.36 100.77 0.01 101.14 0.012 101.37 0.695 101.37 0.657 0 0.896 1.256 0.774 4.05-0.011 0.249 0.338 0.615 0.774 0.813 0.437 0.199 0.869 0.652 0.962 1.006 0.095 0.362 0.472 0.644 0.862 0.644 0.459 0 0.731 0.261 0.803 0.771 0.07 0.488 0.385 0.81 0.86 0.878 0.467 0.066 0.79 0.389 0.857 0.857 0.066 0.467 0.39 0.79 0.857 0.856 0.467 0.067 0.79 0.39 0.857 0.857 0.086 0.609 0.366 0.77 1.489 0.852 1.039 0.077 1.465 0.289 1.714 0.857 0.323 0.737 0.491 0.757 6.932 0.829 7.122 0.08 7.624 0.016 7.624-0.967 0-0.521 0.254-0.65 1.285-0.654 1.255-5e-3 2.23-0.366 2.172-0.805-0.098-0.73 0.114-0.875 1.427-0.97 1.198-0.087 1.476-0.239 1.563-0.855 0.067-0.468 0.39-0.791 0.857-0.857 0.475-0.068 0.791-0.39 0.86-0.878 0.079-0.558 0.34-0.771 0.943-0.771 0.752 0 0.833-0.143 0.833-1.462 0-1.183 0.145-1.525 0.767-1.799 0.65-0.287 0.751-0.561 0.659-1.795-0.101-1.365-0.052-1.457 0.775-1.457h0.883v-58.509c0-43.243 0.101-58.409 0.385-58.124 0.212 0.211 0.597 0.303 0.856 0.203 0.399-0.153 0.485 8.931 0.558 58.896l0.087 59.077 0.753 0.107c0.635 0.09 0.769 0.358 0.857 1.713 0.062 0.972 0.273 1.624 0.532 1.65 0.236 0.024 0.583 0.062 0.771 0.086 0.189 0.023 0.343 0.351 0.343 0.728 0 0.503 0.228 0.686 0.857 0.686 0.685 0 0.857 0.171 0.857 0.856 0 0.612 0.185 0.857 0.648 0.857 0.406 0 0.729 0.321 0.863 0.857 0.139 0.553 0.456 0.857 0.895 0.857 0.437 0 0.679 0.231 0.679 0.649 0 0.762 0.64 1.065 2.255 1.065 0.921 0 1.172 0.139 1.172 0.647 0 1.471 13.812 1.629 14.478 0.166 0.307-0.674 0.626-0.813 1.858-0.813 1.358 0 1.488-0.075 1.488-0.857 0-0.787 0.126-0.857 1.535-0.857 1.353 0 1.562-0.102 1.751-0.857 0.135-0.536 0.458-0.857 0.864-0.857 0.356 0 0.667-0.154 0.691-0.342 0.024-0.189 0.081-0.497 0.129-0.686 0.047-0.188 0.105-0.718 0.128-1.177 0.026-0.508 0.31-0.918 0.728-1.051 0.378-0.12 0.686-0.516 0.686-0.88 0-0.478 0.238-0.662 0.857-0.662 0.837 0 0.857-0.059 0.857-2.547 0-2.38 0.05-2.554 0.771-2.657l0.771-0.109 0.087-77.072c0.078-70.07 0.135-77.052 0.628-76.863 0.297 0.114 0.683 0.207 0.856 0.207 0.178 0 0.314 2.45 0.314 5.656v5.655h0.857 0.857v5.827c0 5.599 0.027 5.827 0.686 5.827 0.655 0 0.685 0.229 0.685 5.114 0 5.599 0.103 6.197 1.065 6.197 0.569 0 0.649 0.27 0.649 2.186 0 2.056 0.663 3.521 1.338 2.956 0.112-0.095 0.282 0.522 0.376 1.371l0.171 1.542 1.637 0.172c0.9 0.094 1.632 0.287 1.628 0.428-0.035 1.072 0.063 1.285 0.596 1.285 0.332 0 0.756 0.347 0.942 0.772 0.473 1.077 11.6 1.404 11.436 0.336-0.128-0.828 0.194-1.079 1.499-1.174 1.198-0.086 1.476-0.238 1.563-0.855 0.067-0.467 0.39-0.791 0.857-0.857 0.475-0.068 0.791-0.39 0.86-0.878 0.079-0.558 0.34-0.771 0.943-0.771 0.752 0 0.833-0.142 0.833-1.461 0-1.187 0.145-1.525 0.771-1.8 1.434-0.629 1.333-12.849-0.107-12.849-0.629 0-0.664-0.284-0.664-5.285 0-5.765-0.101-6.369-1.058-6.369-0.6 0-0.647-0.409-0.734-6.426-0.093-6.372-0.1-6.428-0.865-6.537-0.764-0.108-0.771-0.162-0.771-5.734v-5.626l-0.857-0.215-0.857-0.215v-5.618c0-5.39-0.028-5.618-0.685-5.618-0.656 0-0.686-0.229-0.686-5.289 0-5.297-0.233-6.365-1.388-6.365-0.171 0-0.352-2.881-0.404-6.427-0.092-6.372-0.1-6.428-0.864-6.536-0.764-0.109-0.771-0.162-0.771-5.741v-5.632h-0.857-0.857v-5.688c0-5.399-0.035-5.697-0.686-5.867-0.623-0.163-0.685-0.467-0.685-3.373 0-3.442-0.363-4.952-1.191-4.952-0.391 0-0.523-0.389-0.523-1.543 0-1.416-0.07-1.542-0.857-1.542-0.8 0-0.857-0.114-0.857-1.714 0-1.586-0.062-1.714-0.833-1.714-0.603 0-0.863-0.213-0.942-0.771-0.071-0.495-0.386-0.81-0.881-0.881-0.496-0.07-0.771-0.346-0.771-0.771 0-0.593-0.362-0.821-1.114-0.702-0.245 0.039-0.286-0.076-0.386-1.073-0.023-0.236-0.39-0.478-0.814-0.538-0.558-0.08-0.771-0.34-0.771-0.943 0-0.77-0.129-0.833-1.69-0.833-1.492 0-1.703-0.091-1.8-0.771-0.09-0.639-0.355-0.789-1.544-0.876-1.178-0.085-1.455-0.239-1.543-0.857-0.09-0.636-0.359-0.768-1.735-0.857-1.349-0.086-1.628-0.219-1.628-0.771 0-0.623-0.267-0.667-4.113-0.667h-4.113v-0.857c0-0.787-0.126-0.856-1.543-0.856-0.848 0-1.562-0.155-1.585-0.343-0.024-0.189-0.062-0.536-0.086-0.771-0.026-0.26-0.683-0.47-1.671-0.533-1.47-0.095-1.628-0.186-1.628-0.943 0-0.659-0.178-0.838-0.833-0.838-0.603 0-0.863-0.213-0.942-0.771-0.162-1.135-2.798-1.154-2.959-0.021-0.066 0.467-0.389 0.79-0.857 0.857-0.474 0.067-0.79 0.389-0.859 0.878-0.07 0.492-0.347 0.771-0.765 0.771-0.413 0-0.735 0.316-0.87 0.857-0.135 0.536-0.458 0.857-0.864 0.857-0.568 0-0.831 0.555-0.689 1.456 0.023 0.142-0.345 0.257-0.816 0.257-0.612 0-0.857 0.186-0.857 0.649 0 0.405-0.321 0.729-0.857 0.863-0.754 0.189-0.857 0.399-0.857 1.751 0 1.41-0.07 1.536-0.857 1.536-0.685 0-0.856 0.171-0.856 0.857 0 0.625-0.184 0.857-0.679 0.857-0.436 0-0.755 0.302-0.892 0.845-0.116 0.465-0.312 0.833-0.435 0.817-0.741-0.097-1.079 0.134-1.079 0.737 0 0.503-0.229 0.686-0.857 0.686-0.686 0-0.857 0.171-0.857 0.856 0 0.686-0.171 0.857-0.857 0.857-0.675 0-0.857 0.174-0.857 0.818 0 1.371-3.294 1.482-3.492 0.118-0.064-0.443-0.448-0.83-0.964-0.973-0.471-0.13-0.736-0.252-0.588-0.271 0.478-0.061-0.447-1.405-0.966-1.405-0.276 0-0.502-0.226-0.502-0.503 0-0.519-1.345-1.444-1.406-0.966-0.018 0.148-0.14-0.117-0.271-0.588-0.142-0.516-0.529-0.899-0.973-0.964-0.452-0.065-0.777-0.395-0.843-0.857-0.067-0.474-0.389-0.79-0.878-0.859-0.509-0.073-0.771-0.345-0.771-0.804 0-0.405-0.285-0.768-0.685-0.873-0.377-0.098-0.705-0.315-0.729-0.482-0.023-0.166-0.062-0.495-0.085-0.731-0.024-0.235-0.236-0.448-0.472-0.471-0.235-0.024-0.573-0.062-0.751-0.086-0.178-0.023-0.371-0.698-0.429-1.499-0.086-1.198-0.238-1.476-0.855-1.564-0.467-0.066-0.79-0.389-0.857-0.857-0.068-0.474-0.39-0.79-0.878-0.859-0.499-0.071-0.771-0.346-0.771-0.78 0-0.389-0.34-0.799-0.81-0.978-0.446-0.17-0.887-0.603-0.981-0.963-0.162-0.618-2.332-0.988-2.836-0.483m-201.78 36.814c-0.06 0.426-0.302 0.794-0.538 0.818-0.236 0.023-0.583 0.062-0.772 0.086-0.229 0.028-0.315 21.917-0.257 65.424l0.086 65.381 0.751 0.107c0.467 0.066 0.79 0.389 0.856 0.857l0.107 0.75 13.797 0.089 13.797 0.09-0.087-67.099-0.086-67.099-13.772-0.09-13.772-0.089-0.11 0.775m181.96 18.684c-0.086 0.33-0.156 0.06-0.156-0.6 0-0.659 0.07-0.929 0.156-0.599 0.087 0.329 0.087 0.869 0 1.199m-222.89 13.983c-0.117 0.463-0.421 0.842-0.677 0.842-1.159 0-1.181 1.044-1.092 49.769l0.089 48.431 0.75 0.107c0.468 0.066 0.791 0.389 0.857 0.857l0.107 0.75h13.71 13.711l0.087-50.536c0.069-40.201-1e-3 -50.593-0.343-50.813-0.236-0.152-6.405-0.271-13.709-0.263l-13.279 0.014-0.211 0.842" fill="#26abe2"/>
<path d="m302.45 23.65c0 2.922 0.052 4.118 0.116 2.657 0.065-1.461 0.065-3.852 0-5.313-0.064-1.461-0.116-0.266-0.116 2.656m-230.93 21.509c25.482 0.048 67.282 0.048 92.888 0 25.607-0.049 4.758-0.089-46.33-0.089-51.089 0-72.039 0.04-46.558 0.089m167.12 106.58c0.33 0.086 0.87 0.086 1.2 0s0.06-0.157-0.6-0.157-0.93 0.071-0.6 0.157" fill="#40bfbf"/>
<path d="m292.63 76.34c0.612 0.077 1.615 0.077 2.228 0 0.612-0.076 0.111-0.138-1.114-0.138-1.226 0-1.727 0.062-1.114 0.138m65.638 6e-3c1.084 0.068 2.858 0.068 3.942 0s0.197-0.124-1.971-0.124-3.055 0.056-1.971 0.124m-147.9 60.657c0.427 0.082 1.044 0.079 1.371-7e-3 0.328-0.085-0.021-0.152-0.775-0.149-0.754 4e-3 -1.022 0.074-0.596 0.156" fill="#0ff"/>
</g>
</svg>
