<?xml version="1.0" standalone="no"?>
<!DOCTYPE svg PUBLIC "-//W3C//DTD SVG 20010904//EN"
 "http://www.w3.org/TR/2001/REC-SVG-20010904/DTD/svg10.dtd">
<svg version="1.0" xmlns="http://www.w3.org/2000/svg"
 width="38" height="38" viewBox="0 0 512.000000 512.000000"
 preserveAspectRatio="xMidYMid meet">

<g transform="translate(0.000000,512.000000) scale(0.100000,-0.100000)"
fill="#26abe2" stroke="none">
<path d="M3385 3969 c-145 -21 -271 -84 -375 -189 -133 -133 -190 -262 -198
-445 -8 -204 52 -360 193 -500 91 -92 143 -124 270 -167 209 -71 454 -25 630
119 282 230 325 650 96 937 -109 136 -258 220 -436 246 -80 11 -97 11 -180 -1z
m133 -371 c3 -33 7 -38 40 -49 80 -25 102 -58 64 -93 -18 -15 -22 -15 -63 4
-86 39 -169 20 -169 -39 0 -33 28 -50 130 -80 126 -38 171 -103 136 -196 -18
-46 -55 -76 -108 -89 -22 -5 -27 -12 -30 -44 -3 -34 -6 -37 -37 -40 -39 -4
-51 9 -51 56 0 24 -4 32 -18 32 -10 0 -41 12 -70 26 -57 28 -65 49 -32 79 20
18 22 17 73 -8 71 -36 144 -37 176 -3 18 19 22 32 17 51 -7 29 -42 47 -121 65
-75 17 -125 47 -141 85 -32 78 -3 154 74 190 33 15 42 25 42 45 0 35 19 51 55
48 27 -3 30 -7 33 -40z"/>
<path d="M371 2836 c-8 -10 -10 -230 -9 -812 l3 -799 334 -3 c261 -2 336 1
343 10 12 20 10 1575 -2 1599 -10 18 -25 19 -334 19 -261 0 -326 -3 -335 -14z"/>
<path d="M1694 2836 c-127 -29 -233 -106 -280 -202 l-26 -53 -81 -3 -82 -3 -3
-504 c-1 -364 1 -508 9 -517 9 -11 82 -14 386 -14 l375 0 443 -95 c522 -112
696 -153 824 -195 105 -34 184 -39 249 -16 23 8 90 42 149 74 105 58 180 97
448 237 191 100 433 234 485 268 161 107 209 231 139 363 -40 77 -91 128 -163
164 -92 46 -175 39 -275 -24 -43 -28 -336 -176 -524 -265 -59 -28 -154 -78
-212 -111 -57 -33 -116 -63 -132 -66 -17 -3 -140 22 -318 64 -159 39 -390 94
-512 123 l-221 52 -4 44 c-2 25 -2 46 0 48 2 2 26 -3 54 -12 77 -23 497 -119
647 -148 116 -22 142 -24 187 -15 65 14 109 43 148 97 24 35 30 54 34 117 5
88 -8 146 -49 211 -36 57 -76 76 -229 110 -69 15 -204 46 -300 70 -281 69
-719 173 -800 190 -107 23 -291 28 -366 11z"/>
</g>
</svg>
