<?xml version="1.0" standalone="no"?>
<!DOCTYPE svg PUBLIC "-//W3C//DTD SVG 20010904//EN"
 "http://www.w3.org/TR/2001/REC-SVG-20010904/DTD/svg10.dtd">
<svg version="1.0" xmlns="http://www.w3.org/2000/svg"
 width="28" height="28" viewBox="0 0 512.000000 512.000000"
 preserveAspectRatio="xMidYMid meet">

<g transform="translate(0.000000,512.000000) scale(0.100000,-0.100000)"
fill="#26abe2" stroke="none">
<path d="M2210 5019 c-223 -8 -311 -24 -410 -74 -105 -53 -120 -76 -508 -761
-199 -352 -362 -644 -362 -650 0 -7 871 -507 909 -521 3 -2 179 303 391 677
212 374 387 680 390 680 3 0 106 -165 229 -367 213 -347 223 -367 205 -380
-10 -8 -91 -55 -179 -105 -178 -101 -170 -97 -164 -102 10 -9 1101 -68 1109
-60 12 13 531 997 527 1000 -2 2 -86 -44 -187 -102 -101 -57 -186 -101 -189
-96 -3 5 -127 203 -276 440 l-270 432 -505 -2 c-278 -1 -597 -5 -710 -9z"/>
<path d="M3925 3175 c-247 -135 -454 -246 -458 -248 -4 -1 157 -307 358 -679
201 -372 368 -684 371 -693 5 -13 -27 -15 -293 -15 -165 0 -361 3 -435 7
l-136 6 4 121 c2 67 6 156 8 199 2 42 1 77 -2 77 -12 -1 -636 -864 -636 -880
0 -19 556 -980 566 -980 5 0 8 33 8 73 0 41 3 135 7 210 l6 137 521 0 521 0
100 158 c290 459 570 927 625 1044 18 37 38 91 46 120 17 66 17 211 0 260 -22
61 -710 1328 -721 1328 -5 -1 -212 -111 -460 -245z"/>
<path d="M625 2994 c-203 -6 -398 -13 -433 -13 -35 -1 -61 -5 -58 -10 3 -5 84
-55 180 -112 l175 -104 -33 -60 c-152 -274 -456 -845 -456 -855 0 -14 116
-224 298 -540 192 -334 387 -652 436 -710 63 -74 138 -131 214 -162 l57 -23
763 -3 762 -3 0 531 0 530 -785 2 -785 3 208 377 c147 269 211 377 222 374 8
-2 96 -51 195 -109 98 -59 181 -105 183 -103 2 2 -110 229 -247 505 l-251 501
-138 -1 c-75 -1 -303 -8 -507 -15z"/>
</g>
</svg>
